<?xml version="1.0" encoding="UTF-8" standalone="no"?><!-- Generator: Gravit.io --><svg xmlns="http://www.w3.org/2000/svg" xmlns:xlink="http://www.w3.org/1999/xlink" style="isolation:isolate" viewBox="0 0 512 512" width="512pt" height="512pt"><defs><clipPath id="_clipPath_r1NAyoC7h29SKh4JyGnhEKe7MSSkTH3t"><rect width="512" height="512"/></clipPath></defs><g clip-path="url(#_clipPath_r1NAyoC7h29SKh4JyGnhEKe7MSSkTH3t)"><path d=" M 265.61 450.99 L 265.61 450.99 L 260.03 450.99 L 260.03 450.99 Q 260.65 431.15 275.53 340.63 L 275.53 340.63 L 275.53 340.63 Q 255.69 339.39 245.15 339.39 L 245.15 339.39 L 212.91 339.39 L 212.91 339.39 Q 202.37 395.81 198.65 439.83 L 198.65 439.83 L 198.65 439.83 Q 176.33 450.99 138.51 450.99 L 138.51 450.99 L 132.31 450.99 L 132.31 450.99 Q 132.93 424.95 150.29 341.25 L 150.29 341.25 L 150.29 341.25 Q 102.55 343.73 87.67 347.45 L 87.67 347.45 L 87.67 347.45 Q 81.47 327.61 79.61 291.03 L 79.61 291.03 L 79.61 291.03 Q 108.75 287.93 147.19 287.93 L 147.19 287.93 L 161.45 287.93 L 161.45 287.93 Q 170.75 245.15 175.71 216.63 L 175.71 216.63 L 175.71 216.63 Q 123.63 219.11 107.51 222.83 L 107.51 222.83 L 107.51 222.83 Q 99.45 202.99 95.73 166.41 L 95.73 166.41 L 95.73 166.41 Q 126.73 163.31 165.17 163.31 L 165.17 163.31 L 185.01 163.31 L 185.01 163.31 Q 193.07 114.95 193.07 97.9 L 193.07 97.9 L 193.07 97.9 Q 193.07 80.85 191.83 75.89 L 191.83 75.89 L 191.83 75.89 Q 230.27 61.01 256.93 61.01 L 256.93 61.01 L 256.93 61.01 Q 259.41 69.07 259.41 85.19 L 259.41 85.19 L 259.41 85.19 Q 259.41 101.31 247.63 164.55 L 247.63 164.55 L 303.43 167.03 L 303.43 167.03 Q 310.87 113.09 310.87 96.97 L 310.87 96.97 L 310.87 96.97 Q 310.87 80.85 309.63 75.89 L 309.63 75.89 L 309.63 75.89 Q 348.69 61.01 374.73 61.01 L 374.73 61.01 L 374.73 61.01 Q 377.21 69.07 377.21 87.05 L 377.21 87.05 L 377.21 87.05 Q 377.21 105.03 366.67 170.13 L 366.67 170.13 L 371.01 170.13 L 371.01 170.13 Q 405.11 170.13 431.15 166.41 L 431.15 166.41 L 431.15 166.41 Q 432.39 174.47 432.39 189.35 L 432.39 189.35 L 432.39 189.35 Q 432.39 223.45 407.59 223.45 L 407.59 223.45 L 407.59 223.45 Q 390.23 223.45 357.99 220.97 L 357.99 220.97 L 357.99 220.97 Q 356.13 232.75 351.79 257.24 L 351.79 257.24 L 351.79 257.24 Q 347.45 281.73 345.59 294.75 L 345.59 294.75 L 353.03 294.75 L 353.03 294.75 Q 387.13 294.75 413.17 291.03 L 413.17 291.03 L 413.17 291.03 Q 414.41 303.43 414.41 313.97 L 414.41 313.97 L 414.41 313.97 Q 414.41 348.07 389.61 348.07 L 389.61 348.07 L 389.61 348.07 Q 371.01 348.07 337.53 345.59 L 337.53 345.59 L 337.53 345.59 Q 328.23 407.59 326.37 439.83 L 326.37 439.83 L 326.37 439.83 Q 303.43 450.99 265.61 450.99 Z  M 263.13 214.77 L 263.13 214.77 L 237.71 214.77 L 237.71 214.77 Q 235.85 222.21 230.58 248.25 L 230.58 248.25 L 230.58 248.25 Q 225.31 274.29 222.21 289.17 L 222.21 289.17 L 284.21 291.65 L 296.61 216.01 L 296.61 216.01 Q 274.29 214.77 263.13 214.77 Z " fill="rgb(71,160,255)"/></g></svg>