<?xml version="1.0" encoding="UTF-8" standalone="no"?><!-- Generator: Gravit.io --><svg xmlns="http://www.w3.org/2000/svg" xmlns:xlink="http://www.w3.org/1999/xlink" style="isolation:isolate" viewBox="0 0 1000 1000" width="1000pt" height="1000pt"><defs><clipPath id="_clipPath_67vvvfxm8e0HWRUjvXvKsuqIZ4haU0al"><rect width="1000" height="1000"/></clipPath></defs><g clip-path="url(#_clipPath_67vvvfxm8e0HWRUjvXvKsuqIZ4haU0al)"><g><path d=" M 984.986 372.26 C 977.638 369.731 948.491 372.141 925.975 376.84 C 892.255 384.062 861.668 396.594 826.985 417.298 C 807.231 429.1 765.446 458.605 758.224 465.827 C 751.121 472.93 749.913 472.213 720.408 448.244 C 671.275 408.258 638.763 386.1 604.199 369.366 C 535.797 336.37 464.267 336.37 395.864 369.366 C 356.966 388.271 334.205 404.049 259.304 464.745 C 253.038 469.803 250.874 470.772 247.986 469.319 C 246.055 468.595 234.498 460.172 222.457 451.012 C 181.03 419.462 144.422 398.985 106.965 386.1 C 81.795 377.551 64.218 373.94 39.16 371.769 C 14.958 369.725 4.842 373.575 0.866 385.981 C -3.953 401.155 8.089 414.643 25.911 413.92 C 30 413.92 33.737 414.284 34.461 415.008 C 35.184 415.731 35.788 445.715 35.788 481.599 C 35.788 526.152 36.631 547.467 38.317 548.196 C 40.846 549.278 61.078 546.384 73 543.145 L 79.027 541.459 L 79.266 482.687 C 79.266 433.315 79.87 423.803 82.518 423.558 C 85.532 423.199 121.536 437.046 123.825 439.336 C 124.429 439.939 124.908 458.486 124.908 480.643 C 124.908 515.81 125.386 521.107 128.399 520.987 C 132.369 520.868 160.792 504.486 165.969 499.308 C 168.498 496.779 169.461 492.445 169.461 482.09 C 169.58 473.54 170.304 468.237 171.751 468.237 C 175.123 468.476 213.901 497.616 213.901 500.032 C 213.901 504.373 156.942 543.503 130.079 557.595 C 98.888 573.851 62.16 584.093 29.044 585.892 C 11.102 586.975 5.075 590.107 1.584 600.104 C -2.751 612.151 2.666 623.343 14.952 627.678 C 26.874 631.887 74.082 625.142 105.393 614.794 C 144.29 601.664 196.915 571.196 236.662 538.445 C 241.84 533.985 247.621 530.38 249.307 530.141 C 251.597 529.776 258.461 534.475 273.031 546.403 C 322.762 586.987 356.123 610.472 386.711 626.124 C 463.053 665.135 536.998 665.135 613.347 626.118 C 643.934 610.465 677.295 586.981 727.026 546.397 C 740.999 535.079 748.46 529.782 750.631 530.015 C 752.077 530.254 760.023 535.558 768.088 541.937 C 806.388 572.524 854.307 600.463 890.198 612.988 C 922.352 624.432 970.642 632.019 984.734 627.804 C 996.895 624.073 1002.922 612.271 998.467 600.104 C 994.976 590.107 988.949 586.975 971.007 585.892 C 937.884 584.087 901.163 573.851 869.972 557.595 C 843.002 543.384 786.156 504.366 786.163 500.032 C 786.163 496.899 837.579 459.448 839.391 461.26 C 839.75 461.619 840.234 471.25 840.354 482.694 C 840.354 494.018 841.316 504.127 842.279 505.09 C 844.927 507.738 874.194 523.755 879.013 525.202 C 881.183 525.926 883.467 526.045 883.825 525.687 C 884.184 525.328 884.674 505.335 884.788 481.366 C 884.907 450.899 885.75 437.046 887.675 435.121 C 889.242 433.554 897.911 429.704 907.184 426.445 C 920.911 421.626 924.403 421.029 926.573 423.199 C 928.498 425.124 929.222 442.947 929.347 482.568 C 929.347 526.882 930.197 540.012 932.48 542.295 C 938.023 547.838 967.044 550.851 971.384 546.51 C 973.07 544.824 973.913 521.824 973.913 479.674 C 973.913 422.35 974.392 415.127 977.65 414.524 C 985.961 413.196 993.063 409.466 995.832 405.011 C 1004.255 391.769 999.55 377.199 984.986 372.26 Z  M 708.002 506.411 C 704.511 509.903 700.05 512.916 698.245 513.275 C 695.961 513.394 690.173 509.783 680.303 501.837 C 672.112 495.332 664.77 489.916 663.801 489.677 C 662.839 489.431 661.996 501.359 661.876 516.175 C 661.876 530.871 660.914 543.874 659.831 544.956 C 656.938 547.85 618.77 573.977 617.442 573.858 C 616.838 573.983 616.36 547.485 616.115 515.206 L 616.115 456.435 L 610.453 452.459 C 603.105 447.036 577.815 434.517 574.443 434.517 C 572.518 434.517 571.668 456.793 571.675 516.049 L 571.675 597.695 L 566.013 600.224 C 558.187 603.47 531.695 610.698 529.166 610.094 C 527.958 609.855 527.121 567.824 527.121 516.527 C 527.002 452.1 526.278 422.715 524.473 420.909 C 521.585 418.021 487.135 416.574 484.367 419.343 C 483.405 420.305 482.562 463.537 482.562 515.086 C 482.687 566.749 481.964 609.622 481.121 610.465 C 479.435 612.151 460.411 608.779 446.684 604.199 L 436.807 601.067 L 436.807 516.049 C 436.807 456.8 435.964 430.906 434.278 430.906 C 432.113 430.906 409.346 441.141 397.185 447.527 C 394.052 449.213 393.568 456.68 393.448 514.124 C 393.448 555.066 392.605 578.796 391.158 578.796 C 389.114 578.677 352.984 555.318 349.247 551.581 C 348.524 550.857 347.8 534.721 347.8 515.936 C 347.681 492.69 346.838 481.97 345.152 482.7 C 343.831 483.304 334.073 490.646 323.479 498.837 C 310.23 508.953 303.008 513.772 301.077 513.287 C 299.51 512.929 295.421 509.796 291.804 506.178 L 285.299 499.673 L 297.34 489.318 C 328.537 462.462 369.247 433.076 396.103 417.782 C 432.831 396.946 462.462 388.277 497.742 387.912 C 538.087 387.554 569.756 397.066 613.227 422.96 C 635.988 436.574 691.507 478.114 708.002 493.892 L 714.381 500.032 L 708.002 506.411 L 708.002 506.411 Z " fill="rgb(102,102,102)"/></g></g></svg>