<?xml version="1.0" encoding="UTF-8" standalone="no"?><!-- Generator: Gravit.io --><svg xmlns="http://www.w3.org/2000/svg" xmlns:xlink="http://www.w3.org/1999/xlink" style="isolation:isolate" viewBox="0 0 48 48" width="48pt" height="48pt"><defs><clipPath id="_clipPath_VsEaGFTh92ubARUQotGuVzVwPl6Ccumy"><rect width="48" height="48"/></clipPath></defs><g clip-path="url(#_clipPath_VsEaGFTh92ubARUQotGuVzVwPl6Ccumy)"><clipPath id="_clipPath_hqjd5zSQbb0AUnLBidMRcMiUeNzQndxE"><rect x="0" y="0" width="48" height="48" transform="matrix(1,0,0,1,0,0)" fill="rgb(255,255,255)"/></clipPath><g clip-path="url(#_clipPath_hqjd5zSQbb0AUnLBidMRcMiUeNzQndxE)"><g><path d=" M 18.474 7.927 C 18.372 7.924 18.248 7.928 18.087 7.928 L 5.918 7.928 C 5.536 7.928 5.229 8.238 5.229 8.622 L 5.229 12.851 C 5.228 12.867 5.224 12.882 5.224 12.898 L 5.224 38.475 C 5.224 39.211 5.817 39.804 6.554 39.804 L 42.252 39.804 C 42.988 39.804 43.58 39.211 43.58 38.475 L 43.58 12.898 C 43.58 12.162 42.988 11.569 42.252 11.569 L 20.936 11.569 C 20.923 11.552 20.915 11.543 20.901 11.525 C 20.409 10.862 19.667 9.076 19.182 8.429 C 18.891 8.005 18.782 7.935 18.474 7.927 L 18.474 7.927 L 18.474 7.927 L 18.474 7.927 L 18.474 7.927 Z  M 19.175 28 L 21.325 28 C 21.698 28 22 28.302 22 28.675 L 22 30.325 C 22 30.698 21.698 31 21.325 31 L 19.175 31 C 18.802 31 18.5 30.698 18.5 30.325 L 18.5 28.675 C 18.5 28.302 18.802 28 19.175 28 L 19.175 28 L 19.175 28 L 19.175 28 Z  M 31.5 26.34 L 31.649 26.34 C 33.499 26.34 33.889 25.33 32.521 24.086 L 29.5 21.34 L 26.479 18.593 C 25.111 17.349 22.889 17.349 21.521 18.593 L 18.5 21.34 L 15.479 24.086 C 14.111 25.33 14.501 26.34 16.351 26.34 L 16.5 26.34 L 16.5 31.928 C 16.5 33.623 17.877 35 19.572 35 L 24 35 L 24 28.995 C 24 28.722 24.222 28.5 24.495 28.5 L 26.505 28.5 C 26.778 28.5 27 28.722 27 28.995 L 27 35 L 27 35 L 28.428 35 C 30.123 35 31.5 33.623 31.5 31.928 L 31.5 26.34 L 31.5 26.34 L 31.5 26.34 Z " fill-rule="evenodd" fill="rgb(255,255,255)"/></g></g></g></svg>