<?xml version="1.0" encoding="UTF-8" standalone="no"?><!-- Generator: Gravit.io --><svg xmlns="http://www.w3.org/2000/svg" xmlns:xlink="http://www.w3.org/1999/xlink" style="isolation:isolate" viewBox="0 0 512 512" width="512pt" height="512pt"><defs><clipPath id="_clipPath_ITiKIYb39qYaGvnFRl3Q3RhhCGx9yiHM"><rect width="512" height="512"/></clipPath></defs><g clip-path="url(#_clipPath_ITiKIYb39qYaGvnFRl3Q3RhhCGx9yiHM)"><rect x="0" y="0" width="512" height="512" transform="matrix(1,0,0,1,0,0)" fill="none"/><path d=" M 213.58 346.557 L 213.58 346.557 Q 212.593 364.965 205.934 380.108 L 205.934 380.108 L 205.934 380.108 Q 199.276 395.25 188.177 395.25 L 188.177 395.25 L 188.177 395.25 Q 177.079 395.25 170.173 389.906 L 170.173 389.906 L 170.173 389.906 Q 163.268 384.561 121.341 347.745 L 121.341 347.745 L 121.341 347.745 Q 79.414 310.928 50.559 290.738 L 50.559 290.738 L 50.559 290.738 Q 21.703 270.549 0 265.798 L 0 265.798 L 0 265.798 Q 0 228.981 43.407 205.229 L 43.407 205.229 L 43.407 205.229 Q 59.684 196.321 99.391 177.022 L 99.391 177.022 L 99.391 177.022 Q 139.098 157.723 160.555 144.066 L 160.555 144.066 L 160.555 144.066 Q 182.012 130.408 190.397 116.75 L 190.397 116.75 L 190.397 116.75 Q 214.566 135.752 214.566 155.348 L 214.566 155.348 L 214.566 155.348 Q 214.566 174.944 195.823 186.227 L 195.823 186.227 L 195.823 186.227 Q 183.985 193.352 136.632 212.651 L 136.632 212.651 L 136.632 212.651 Q 89.279 231.95 67.576 245.014 L 67.576 245.014 L 67.576 245.014 Q 73.988 250.359 98.405 270.845 L 98.405 270.845 L 98.405 270.845 Q 122.821 291.332 133.426 299.349 L 133.426 299.349 L 133.426 299.349 Q 144.031 307.365 162.281 320.429 L 162.281 320.429 L 162.281 320.429 Q 195.329 345.369 213.58 346.557 L 213.58 346.557 Z  M 316.177 186.227 L 316.177 186.227 L 316.177 186.227 Q 297.434 174.944 297.434 155.348 L 297.434 155.348 L 297.434 155.348 Q 297.434 135.752 321.603 116.75 L 321.603 116.75 L 321.603 116.75 Q 329.988 130.408 351.445 144.066 L 351.445 144.066 L 351.445 144.066 Q 372.902 157.723 412.609 177.022 L 412.609 177.022 L 412.609 177.022 Q 452.316 196.321 468.593 205.229 L 468.593 205.229 L 468.593 205.229 Q 512 228.981 512 265.798 L 512 265.798 L 512 265.798 Q 490.297 270.549 461.441 290.738 L 461.441 290.738 L 461.441 290.738 Q 432.586 310.928 390.659 347.745 L 390.659 347.745 L 390.659 347.745 Q 348.732 384.561 341.827 389.906 L 341.827 389.906 L 341.827 389.906 Q 334.921 395.25 323.823 395.25 L 323.823 395.25 L 323.823 395.25 Q 312.724 395.25 306.066 380.108 L 306.066 380.108 L 306.066 380.108 Q 299.407 364.965 298.42 346.557 L 298.42 346.557 L 298.42 346.557 Q 316.671 345.369 342.32 326.367 L 342.32 326.367 L 342.32 326.367 Q 367.969 307.365 378.574 299.349 L 378.574 299.349 L 378.574 299.349 Q 389.179 291.332 413.595 270.845 L 413.595 270.845 L 413.595 270.845 Q 438.012 250.359 444.424 245.014 L 444.424 245.014 L 444.424 245.014 Q 422.721 231.95 375.368 212.651 L 375.368 212.651 L 375.368 212.651 Q 328.015 193.352 316.177 186.227 Z " fill="rgb(255,122,45)"/></g></svg>