<?xml version="1.0" encoding="UTF-8" standalone="no"?>
<!DOCTYPE svg PUBLIC "-//W3C//DTD SVG 1.1//EN" "http://www.w3.org/Graphics/SVG/1.1/DTD/svg11.dtd">
<svg width="100%" height="100%" viewBox="0 0 512 512" version="1.1" xmlns="http://www.w3.org/2000/svg" xmlns:xlink="http://www.w3.org/1999/xlink" xml:space="preserve" xmlns:serif="http://www.serif.com/" style="fill-rule:evenodd;clip-rule:evenodd;stroke-linejoin:round;stroke-miterlimit:2;">
    <g>
        <g transform="matrix(0.815456,0,0,0.815066,44.1129,45.6338)">
            <path d="M511.69,123.373C511.69,58.428 459.067,5.779 394.153,5.779L123.64,5.779C58.726,5.779 6.103,58.428 6.103,123.373L6.103,394.015C6.103,458.96 58.726,511.609 123.64,511.609L394.153,511.609C459.067,511.609 511.69,458.96 511.69,394.015L511.69,123.373Z" style="fill:url(#_Linear1);"/>
        </g>
        <g transform="matrix(0.717071,0,0,0.717071,72.3494,56.3505)">
            <path d="M56.103,118.283C56.103,109.96 62.851,103.212 71.174,103.212L98.247,103.212C106.57,103.212 113.318,109.96 113.318,118.283L113.318,438.564C113.318,446.887 106.57,453.635 98.247,453.635L71.174,453.635C62.851,453.635 56.103,446.887 56.103,438.564L56.103,118.283ZM170.351,176.961C170.351,168.638 177.099,161.89 185.422,161.89C193.677,161.89 203.875,161.89 212.13,161.89C220.453,161.89 227.201,168.638 227.201,176.961C227.201,227.163 227.201,388.362 227.201,438.564C227.201,446.887 220.453,453.635 212.13,453.635C203.875,453.635 193.677,453.635 185.422,453.635C177.099,453.635 170.351,446.887 170.351,438.564C170.351,388.362 170.351,227.163 170.351,176.961ZM285.879,176.961C285.879,172.964 287.467,169.131 290.293,166.304C293.12,163.478 296.953,161.89 300.95,161.89L327.11,161.89C331.107,161.89 334.94,163.478 337.767,166.304C340.593,169.131 342.181,172.964 342.181,176.961L342.181,438.564C342.181,442.561 340.593,446.394 337.767,449.221C334.94,452.047 331.107,453.635 327.11,453.635L300.95,453.635C296.953,453.635 293.12,452.047 290.293,449.221C287.467,446.394 285.879,442.561 285.879,438.564L285.879,176.961ZM396.289,224.671C396.289,220.674 397.877,216.841 400.703,214.014C403.53,211.188 407.363,209.6 411.36,209.6L440.262,209.6C444.259,209.6 448.092,211.188 450.919,214.014C453.745,216.841 455.333,220.674 455.333,224.671L455.333,438.564C455.333,442.561 453.745,446.394 450.919,449.221C448.092,452.047 444.259,453.635 440.262,453.635L411.36,453.635C407.363,453.635 403.53,452.047 400.703,449.221C397.877,446.394 396.289,442.561 396.289,438.564L396.289,224.671ZM396.289,146.819C396.289,155.142 403.037,161.89 411.36,161.89C420.225,161.89 431.397,161.89 440.262,161.89C448.585,161.89 455.333,155.142 455.333,146.819C455.333,138.055 455.333,127.047 455.333,118.283C455.333,109.96 448.585,103.212 440.262,103.212C431.397,103.212 420.225,103.212 411.36,103.212C403.037,103.212 396.289,109.96 396.289,118.283C396.289,127.047 396.289,138.055 396.289,146.819Z" style="fill:url(#_Linear2);"/>
        </g>
    </g>
    <defs>
        <linearGradient id="_Linear1" x1="0" y1="0" x2="1" y2="0" gradientUnits="userSpaceOnUse" gradientTransform="matrix(505.588,-505.829,505.588,505.829,6.38107,511.609)"><stop offset="0" style="stop-color:rgb(38,11,68);stop-opacity:1"/><stop offset="1" style="stop-color:rgb(47,0,24);stop-opacity:1"/></linearGradient>
        <linearGradient id="_Linear2" x1="0" y1="0" x2="1" y2="0" gradientUnits="userSpaceOnUse" gradientTransform="matrix(399.23,-350.423,350.423,399.23,56.103,453.635)"><stop offset="0" style="stop-color:rgb(145,0,203);stop-opacity:1"/><stop offset="1" style="stop-color:rgb(205,1,52);stop-opacity:1"/></linearGradient>
    </defs>
</svg>
