<?xml version="1.0" encoding="UTF-8" standalone="no"?>
<!DOCTYPE svg PUBLIC "-//W3C//DTD SVG 1.1//EN" "http://www.w3.org/Graphics/SVG/1.1/DTD/svg11.dtd">
<svg width="100%" height="100%" viewBox="0 0 512 512" version="1.1" xmlns="http://www.w3.org/2000/svg" xmlns:xlink="http://www.w3.org/1999/xlink" xml:space="preserve" xmlns:serif="http://www.serif.com/" style="fill-rule:evenodd;clip-rule:evenodd;stroke-linejoin:round;stroke-miterlimit:2;">
    <g>
        <g transform="matrix(1.01268,0,0,1.0122,-6.462,-5.8499)">
            <path d="M511.69,116.924C511.69,87.446 499.986,59.176 479.152,38.333C458.319,17.489 430.062,5.779 400.599,5.779L117.194,5.779C87.73,5.779 59.474,17.489 38.64,38.333C17.807,59.176 6.103,87.446 6.103,116.924L6.103,400.465C6.103,429.942 17.807,458.212 38.64,479.055C59.474,499.899 87.73,511.609 117.194,511.609L400.599,511.609C430.062,511.609 458.319,499.899 479.152,479.055C499.986,458.212 511.69,429.942 511.69,400.465L511.69,116.924Z" style="fill:url(#_Linear1);"/>
        </g>
        <g transform="matrix(0.917365,0,0,0.917365,21.1307,0.583965)">
            <path d="M56.103,114.993C56.103,108.486 61.377,103.212 67.884,103.212C77.727,103.212 91.694,103.212 101.537,103.212C108.044,103.212 113.318,108.486 113.318,114.993C113.318,168.501 113.318,388.346 113.318,441.854C113.318,448.361 108.044,453.635 101.537,453.635C91.694,453.635 77.727,453.635 67.884,453.635C61.377,453.635 56.103,448.361 56.103,441.854C56.103,388.346 56.103,168.501 56.103,114.993ZM170.351,173.671C170.351,167.164 175.625,161.89 182.132,161.89C191.883,161.89 205.669,161.89 215.42,161.89C221.927,161.89 227.201,167.164 227.201,173.671C227.201,220.712 227.201,394.813 227.201,441.854C227.201,448.361 221.927,453.635 215.42,453.635C205.669,453.635 191.883,453.635 182.132,453.635C175.625,453.635 170.351,448.361 170.351,441.854C170.351,394.813 170.351,220.712 170.351,173.671ZM285.879,173.671C285.879,167.164 291.153,161.89 297.66,161.89C307.272,161.89 320.788,161.89 330.4,161.89C336.907,161.89 342.181,167.164 342.181,173.671C342.181,220.712 342.181,394.813 342.181,441.854C342.181,448.361 336.907,453.635 330.4,453.635C320.788,453.635 307.272,453.635 297.66,453.635C291.153,453.635 285.879,448.361 285.879,441.854C285.879,394.813 285.879,220.712 285.879,173.671ZM396.289,221.381C396.289,214.874 401.563,209.6 408.07,209.6C418.37,209.6 433.252,209.6 443.552,209.6C450.059,209.6 455.333,214.874 455.333,221.381C455.333,262.671 455.333,400.564 455.333,441.854C455.333,448.361 450.059,453.635 443.552,453.635C433.252,453.635 418.37,453.635 408.07,453.635C401.563,453.635 396.289,448.361 396.289,441.854C396.289,400.564 396.289,262.671 396.289,221.381ZM396.289,150.109C396.289,156.616 401.563,161.89 408.07,161.89C418.37,161.89 433.252,161.89 443.552,161.89C450.059,161.89 455.333,156.616 455.333,150.109C455.333,139.9 455.333,125.202 455.333,114.993C455.333,108.486 450.059,103.212 443.552,103.212C433.252,103.212 418.37,103.212 408.07,103.212C401.563,103.212 396.289,108.486 396.289,114.993C396.289,125.202 396.289,139.9 396.289,150.109Z" style="fill:url(#_Linear2);"/>
        </g>
    </g>
    <defs>
        <linearGradient id="_Linear1" x1="0" y1="0" x2="1" y2="0" gradientUnits="userSpaceOnUse" gradientTransform="matrix(505.588,-505.829,505.588,505.829,6.38107,511.609)"><stop offset="0" style="stop-color:rgb(38,11,68);stop-opacity:1"/><stop offset="1" style="stop-color:rgb(47,0,24);stop-opacity:1"/></linearGradient>
        <linearGradient id="_Linear2" x1="0" y1="0" x2="1" y2="0" gradientUnits="userSpaceOnUse" gradientTransform="matrix(399.23,-350.423,350.423,399.23,56.103,453.635)"><stop offset="0" style="stop-color:rgb(145,0,203);stop-opacity:1"/><stop offset="1" style="stop-color:rgb(205,1,52);stop-opacity:1"/></linearGradient>
    </defs>
</svg>
