<?xml version="1.0" encoding="UTF-8" standalone="no"?><!-- Generator: Gravit.io --><svg xmlns="http://www.w3.org/2000/svg" xmlns:xlink="http://www.w3.org/1999/xlink" style="isolation:isolate" viewBox="0 0 512 512" width="512pt" height="512pt"><defs><clipPath id="_clipPath_e0Ws4qcl4T7nFWOgx1lDv2tI7vtXUjn8"><rect width="512" height="512"/></clipPath></defs><g clip-path="url(#_clipPath_e0Ws4qcl4T7nFWOgx1lDv2tI7vtXUjn8)"><g><path d=" M 112.155 67.644 L 196.367 67.644 L 196.367 303.663 C 196.367 410.038 145.398 447.16 63.953 447.16 C 44.009 447.16 18.524 443.836 1.901 438.296 L 11.32 370.15 C 22.955 374.028 37.914 376.798 54.534 376.798 C 89.992 376.798 112.155 360.73 112.155 303.111 L 112.155 67.644 L 112.155 67.644 Z " fill="rgb(223,193,0)"/><path d=" M 269.484 354.634 C 291.645 366.269 327.104 377.904 363.116 377.904 C 401.899 377.904 422.398 361.838 422.398 336.906 C 422.398 314.191 404.669 300.341 359.792 284.827 C 297.739 262.665 256.742 228.315 256.742 173.467 C 256.742 109.752 310.483 61.55 398.02 61.55 C 440.682 61.55 471.152 69.863 493.315 80.388 L 474.476 147.98 C 460.072 140.779 432.923 130.251 396.914 130.251 C 360.347 130.251 342.617 147.426 342.617 166.264 C 342.617 190.088 363.116 200.613 411.873 219.452 C 477.801 243.83 508.273 278.18 508.273 331.367 C 508.273 393.973 460.626 447.161 358.13 447.161 C 315.468 447.161 273.36 435.525 252.31 423.891 L 269.484 354.634 L 269.484 354.634 Z " fill="rgb(223,193,0)"/></g></g></svg>