<?xml version="1.0" encoding="UTF-8" standalone="no"?><!-- Generator: Gravit.io --><svg xmlns="http://www.w3.org/2000/svg" xmlns:xlink="http://www.w3.org/1999/xlink" style="isolation:isolate" viewBox="0 0 511.998 511.998" width="511.998pt" height="511.998pt"><defs><clipPath id="_clipPath_r3Lx86filr1VlgSdjqxnBDURkEQIzmv4"><rect width="511.998" height="511.998"/></clipPath></defs><g clip-path="url(#_clipPath_r3Lx86filr1VlgSdjqxnBDURkEQIzmv4)"><path d=" M 429.749 57.499 L 429.749 57.499 Q 429.749 72.499 423.499 79.999 L 423.499 79.999 L 423.499 79.999 Q 417.249 87.499 403.249 87.499 L 403.249 87.499 L 403.249 87.499 Q 402.249 97.999 398.749 123.999 L 398.749 123.999 L 398.749 123.999 Q 393.749 158.999 393.249 162.999 L 393.249 162.999 L 393.249 162.999 Q 348.749 494.499 207.749 494.499 L 207.749 494.499 L 207.749 494.499 Q 166.249 494.499 142.999 470.999 L 142.999 470.999 L 142.999 470.999 Q 119.749 447.499 119.749 411.999 L 119.749 411.999 L 119.749 411.999 Q 119.749 348.499 173.749 299.749 L 173.749 299.749 L 173.749 299.749 Q 227.749 250.999 315.749 218.999 L 315.749 218.999 L 315.749 218.999 Q 321.249 183.499 324.249 155.499 L 324.249 155.499 L 333.249 79.999 L 333.249 79.999 Q 303.249 76.999 277.249 76.999 L 277.249 76.999 L 277.249 76.999 Q 207.749 76.999 174.749 90.499 L 174.749 90.499 L 174.749 90.499 Q 141.749 103.999 141.749 134.499 L 141.749 134.499 L 141.749 134.499 Q 141.749 149.499 151.749 166.999 L 151.749 166.999 L 151.749 166.999 Q 154.749 171.999 154.749 177.499 L 154.749 177.499 L 154.749 177.499 Q 154.749 187.999 143.999 196.249 L 143.999 196.249 L 143.999 196.249 Q 133.249 204.499 120.749 204.499 L 120.749 204.499 L 120.749 204.499 Q 104.749 204.499 96.249 190.999 L 96.249 190.999 L 96.249 190.999 Q 82.249 167.999 82.249 137.499 L 82.249 137.499 L 82.249 137.499 Q 82.249 17.499 292.249 17.499 L 292.249 17.499 L 292.249 17.499 Q 353.249 17.499 401.249 29.499 L 401.249 29.499 L 401.249 29.499 Q 429.749 36.499 429.749 57.499 L 429.749 57.499 Z  M 214.249 440.999 L 214.249 440.999 Q 238.749 440.999 263.249 403.999 L 263.249 403.999 L 263.249 403.999 Q 287.749 366.999 306.249 274.499 L 306.249 274.499 L 306.249 274.499 Q 184.249 327.999 184.249 405.499 L 184.249 405.499 L 184.249 405.499 Q 184.249 422.499 192.249 431.749 L 192.249 431.749 L 192.249 431.749 Q 200.249 440.999 214.249 440.999 L 214.249 440.999 Z " fill="rgb(0,140,77)"/></g></svg>