<?xml version="1.0" standalone="no"?><!-- Generator: Gravit.io --><svg xmlns="http://www.w3.org/2000/svg" xmlns:xlink="http://www.w3.org/1999/xlink" style="isolation:isolate" viewBox="0 0 14 14" width="14px" height="14px">
<defs><clipPath id="_clipPath_ZdDOHC62qBHVdXQ34YqtfFakxO89PsTd"><rect width="14" height="14"/></clipPath></defs><g clip-path="url(#_clipPath_ZdDOHC62qBHVdXQ34YqtfFakxO89PsTd)"><path d=" M 5.001 11.547 L 3 8.045 L 0.999 4.543 C -0.104 2.612 0.805 1.045 3.029 1.045 L 7 1.045 L 10.971 1.045 C 13.195 1.045 14.104 2.612 13.001 4.543 L 11 8.045 L 8.999 11.547 C 7.896 13.477 6.104 13.477 5.001 11.547 Z " fill="rgb(255,213,0)"/><path d=" M 4.97 10.56 L 3.5 8.04 L 2.03 5.52 C 0.91 3.599 1.805 2.04 4.029 2.04 L 7 2.04 L 9.971 2.04 C 12.195 2.04 13.09 3.599 11.97 5.52 L 10.5 8.04 L 9.03 10.56 C 7.91 12.48 6.09 12.48 4.97 10.56 Z " fill="rgb(255,255,0)"/></g></svg>
