<?xml version="1.0" encoding="UTF-8" standalone="no"?><!-- Generator: Gravit.io --><svg xmlns="http://www.w3.org/2000/svg" xmlns:xlink="http://www.w3.org/1999/xlink" style="isolation:isolate" viewBox="0 0 512 512" width="512pt" height="512pt"><defs><clipPath id="_clipPath_jSLNmjYqdfPfBecLmJ3jnxB0jHE18Jgm"><rect width="512" height="512"/></clipPath></defs><g clip-path="url(#_clipPath_jSLNmjYqdfPfBecLmJ3jnxB0jHE18Jgm)"><g><path d=" M 293.135 343.92 C 312.565 354.121 343.654 364.322 375.227 364.322 C 409.231 364.322 427.203 350.236 427.203 328.377 C 427.203 308.461 411.659 296.318 372.313 282.716 C 317.908 263.285 281.963 233.169 281.963 185.08 C 281.963 129.218 329.081 86.956 405.83 86.956 C 443.234 86.956 469.949 94.245 489.381 103.472 L 472.863 162.734 C 460.234 156.421 436.431 147.19 404.86 147.19 C 372.8 147.19 357.255 162.249 357.255 178.765 C 357.255 199.653 375.227 208.881 417.976 225.398 C 475.779 246.772 502.495 276.888 502.495 323.521 C 502.495 378.411 460.72 425.044 370.856 425.044 C 333.452 425.044 296.533 414.842 278.077 404.642 L 293.135 343.92 Z " fill="rgb(0,123,255)"/></g><path d=" M 172.999 146.619 L 172.999 425.044 L 101.311 425.044 L 101.311 146.619 L 9.505 146.619 L 9.505 86.956 L 264.805 86.956 L 264.805 146.619 L 172.999 146.619 Z " fill="rgb(0,123,255)"/></g></svg>