<?xml version="1.0" encoding="UTF-8" standalone="no"?><!-- Generator: Gravit.io --><svg xmlns="http://www.w3.org/2000/svg" xmlns:xlink="http://www.w3.org/1999/xlink" style="isolation:isolate" viewBox="0 0 500 500" width="500pt" height="500pt"><defs><clipPath id="_clipPath_c3xM8sy78LkS9o3pBjIdRWjEjAeMmwGm"><rect width="500" height="500"/></clipPath></defs><g clip-path="url(#_clipPath_c3xM8sy78LkS9o3pBjIdRWjEjAeMmwGm)"><g><path d=" M 129.878 108.107 L 129.81 108.107 L 129.976 108.107 L 129.878 108.107 Z " fill="none"/><path d=" M 138.228 432.067 C 139.403 431.72 140.557 431.305 141.684 430.824 L 138.228 432.067 Z " fill="none"/><path d=" M 120.647 114.607 C 119.463 115.518 118.288 116.457 117.133 117.407 C 115.978 118.357 115.058 119.159 114.03 120.06 L 122.341 113.325 L 120.647 114.607 Z " fill="none"/><path d=" M 298.015 233.897 L 287.786 234.778 Q 225.292 259.368 196.248 261.874 Q 144.366 365.002 131.875 392.333 Q 154.899 386.058 220.701 349.839 Q 224.421 349.516 272.495 317.995 L 315.675 283.792 Q 329.683 277.918 341.312 244.479 L 341.156 242.629 Q 325.767 231.518 298.015 233.897 Z " fill="none"/><path d=" M 384.923 95.851 L 385.716 86.062 L 389.21 85.759 C 389.485 88.98 390.708 90.487 392.872 90.301 Q 400.703 80.355 400.096 73.562 C 400.021 72.72 399.88 71.885 399.675 71.066 C 397.185 68.484 394.296 66.319 391.119 64.654 L 387.634 64.977 L 388.329 73.082 L 385.079 73.366 C 384.884 70.512 383.931 67.761 382.319 65.398 L 380.674 65.535 C 380.601 64.689 380.474 63.848 380.293 63.019 Q 370.504 53.621 340.755 56.167 Q 335.175 56.636 312.073 60.18 L 311.681 55.579 L 306.561 56.02 Q 283.067 60.033 283.674 67.483 L 248.042 147.88 Q 242.041 151.493 237.059 177.972 Q 230.04 188.799 228.924 196.738 C 229.815 196.942 230.681 197.24 231.508 197.628 Q 295.764 169.573 305.798 168.741 Q 335.958 149.359 342.751 141.263 Q 344.856 141.087 353.647 129.066 Q 363.357 128.175 384.923 95.851 Z " fill="none"/><path d=" M 96.204 130.475 L 98.093 133.412 C 100.247 131.454 102.087 129.8 103.634 128.518 L 100.981 124.533 C 99.281 126.425 97.686 128.409 96.204 130.475 L 96.204 130.475 Z " fill="rgb(1,1,1)"/><path d=" M 158.903 70.047 L 158.795 68.892 C 155.721 70.684 152.608 72.465 149.407 74.247 L 149.691 77.536 C 150.336 77.456 150.967 77.295 151.571 77.056 Q 158.962 71.163 158.903 70.047 Z " fill="rgb(1,1,1)"/><path d=" M 248.042 147.88 L 283.674 67.502 Q 283.028 60.063 306.561 56.039 L 311.681 55.599 L 312.073 60.2 Q 335.165 56.666 340.755 56.167 Q 370.474 53.602 380.293 63.019 Q 376.279 44.929 336.349 48.335 Q 330.789 48.815 307.667 52.349 L 307.276 47.748 L 302.166 48.188 Q 278.672 52.202 279.269 59.661 L 243.588 140.03 Q 237.587 143.642 232.605 170.131 Q 223.521 184.159 224.304 193.37 L 224.568 196.434 C 226.01 196.304 227.463 196.4 228.875 196.718 Q 230.011 188.779 237.01 177.952 Q 241.993 151.502 248.042 147.88 Z " fill="rgb(1,1,1)"/><path d=" M 388.329 73.062 L 387.634 64.977 L 391.119 64.673 C 394.296 66.338 397.185 68.503 399.675 71.085 Q 397.619 62.833 386.714 56.842 L 383.229 57.145 L 383.924 65.251 L 382.319 65.398 C 383.932 67.754 384.888 70.498 385.089 73.346 L 388.329 73.062 Z " fill="rgb(1,1,1)"/><path d=" M 287.786 234.778 L 298.015 233.897 Q 325.767 231.508 341.156 242.629 L 340.764 238.126 Q 325.209 223.344 293.61 226.066 L 283.381 226.947 Q 220.887 251.547 191.843 254.053 Q 125.884 385.226 123.584 393.762 L 125.444 393.606 C 127.62 393.365 129.771 392.939 131.875 392.333 Q 144.386 364.992 196.248 261.874 Q 225.292 259.378 287.786 234.778 Z " fill="rgb(1,1,1)"/><path d=" M 395.387 174.047 L 438.263 136.339 Q 452.585 117.838 455.385 77.007 L 454.836 70.645 C 454.184 63.06 451.51 55.788 447.093 49.588 C 448.919 53.786 450.05 58.253 450.441 62.813 L 450.979 69.176 Q 448.19 110.055 433.858 128.518 L 390.963 166.215 Q 368.174 179.01 368.771 185.793 Q 371.296 188.603 373.665 191.207 Q 376.397 184.717 395.387 174.047 Z " fill="rgb(1,1,1)"/><path d=" M 105.18 120.334 C 104.564 120.863 103.957 121.421 103.35 122.008 C 103.975 121.745 104.634 121.571 105.308 121.489 L 105.18 120.334 Z " fill="rgb(1,1,1)"/><path d=" M 331.66 330.779 Q 307.677 345.894 260.915 381.927 Q 251.713 389.142 227.632 392.744 L 227.789 394.497 L 229.639 394.34 L 237.862 391.863 L 238.008 393.616 Q 220.975 407.888 188.211 410.717 Q 169.73 420.643 141.684 430.794 C 140.557 431.276 139.403 431.691 138.228 432.038 Q 125.062 436.717 109.84 441.455 Q 102.234 443.824 94.119 446.212 Q 84.76 465.644 67.796 485.907 C 66.269 489.607 64.712 493.983 63.117 499.073 L 63.244 500.61 L 66.494 500.326 Q 87.638 476.646 98.563 454.063 Q 160.234 435.934 192.656 418.568 Q 225.429 415.749 242.453 401.466 L 242.296 399.714 L 234.083 402.191 L 232.223 402.347 L 232.076 400.595 Q 256.118 396.983 265.359 389.778 Q 312.131 353.735 336.105 338.63 Q 410.042 284.311 405.734 234.328 Q 405.578 232.448 401.339 226.682 Q 405.509 276.577 331.66 330.779 Z " fill="rgb(1,1,1)"/><path d=" M 215.454 71.584 Q 178.364 84.046 140.519 112.043 L 137.024 112.346 Q 136.819 109.957 129.976 108.137 L 129.81 108.137 Q 125.982 110.584 122.341 113.315 L 114.03 120.05 C 112.405 121.489 110.819 122.987 109.253 124.484 L 109.253 124.484 L 109.674 129.31 C 107.907 129.654 106.218 130.317 104.691 131.268 L 108.724 137.328 C 116.29 129.13 124.873 121.932 134.264 115.909 Q 141.204 117.75 141.42 120.158 L 144.904 119.854 Q 177.463 95.812 209.444 83.224 C 211.763 80.611 213.868 77.815 215.738 74.864 L 215.454 71.584 Z " fill="rgb(1,1,1)"/><path d=" M 75.617 451.126 L 75.382 448.405 L 75.334 447.837 C 73.728 447.974 72.69 447.778 72.23 447.24 C 72.064 447.056 71.965 446.822 71.947 446.574 L 68.599 448.415 L 65.349 448.699 L 65.065 445.41 L 63.205 445.566 C 61.374 447.24 57.517 448.904 51.673 450.549 C 50.783 452.047 49.892 453.544 49.021 454.993 C 49.337 456.689 50.033 458.292 51.057 459.682 Q 64.135 456.569 67.61 453.397 L 69.46 453.231 L 69.744 456.52 L 73.004 456.246 L 75.138 455.071 C 75.52 453.793 75.682 452.459 75.617 451.126 Z " fill="rgb(1,1,1)"/><path d=" M 390.963 166.215 L 433.829 128.518 Q 448.19 110.006 450.979 69.176 L 450.441 62.813 C 450.05 58.253 448.919 53.786 447.093 49.588 Q 438.489 29.795 408.74 16.305 Q 385.618 0.614 325.376 -0.61 Q 275.452 3.697 195.181 34.68 C 179.109 46.244 162.355 56.832 145.012 66.386 L 145.257 69.675 C 147.031 69.37 148.724 68.704 150.23 67.718 Q 153.49 67.444 153.754 70.508 L 157.102 68.677 L 158.727 68.53 L 158.727 68.883 L 158.834 70.067 Q 158.922 71.183 151.502 77.047 Q 142.8 83.899 123.731 97.388 L 125.62 100.325 L 123.995 100.462 L 120.373 99.229 Q 120.5 100.775 115.4 101.186 L 115.547 102.939 L 119.463 107.246 C 117.657 107.243 115.871 106.87 114.216 106.15 Q 102.821 107.128 91.76 122.654 L 93.649 125.591 Q 103.193 116.78 104.818 116.673 L 105.141 120.344 L 105.239 121.499 C 104.566 121.58 103.907 121.755 103.281 122.018 C 102.233 122.438 101.213 122.925 100.227 123.476 L 100.912 124.455 L 103.565 128.439 L 104.26 129.487 Q 106.668 126.902 109.155 124.465 C 110.721 122.948 112.307 121.469 113.932 120.03 C 114.96 119.13 115.988 118.249 117.035 117.378 C 118.082 116.506 119.365 115.488 120.549 114.578 L 122.243 113.296 Q 125.884 110.584 129.712 108.117 L 129.78 108.117 L 129.878 108.117 Q 136.731 109.938 136.926 112.326 L 140.421 112.023 Q 178.266 84.036 215.356 71.565 L 215.738 74.864 C 213.868 77.815 211.763 80.611 209.444 83.224 C 208.132 84.604 207.094 85.328 206.341 85.397 C 206.51 87.656 207.349 89.813 208.749 91.593 Q 209.287 97.956 175.114 176.65 Q 97.467 359.628 44.615 447.172 C 44.934 448.864 45.63 450.464 46.652 451.851 C 48.472 451.42 50.136 450.989 51.673 450.549 C 57.547 448.904 61.374 447.24 63.205 445.566 L 65.065 445.41 L 65.349 448.699 L 68.599 448.415 L 71.947 446.574 C 71.965 446.822 72.064 447.056 72.23 447.24 C 72.69 447.778 73.728 447.974 75.334 447.837 L 75.382 448.405 L 75.617 451.126 C 75.678 452.449 75.516 453.773 75.138 455.042 C 73.944 458.872 72.253 462.528 70.106 465.918 Q 64.771 471.909 58.712 491.203 L 58.839 492.73 L 62.099 492.456 C 64.057 490.243 65.956 488.051 67.796 485.858 Q 84.76 465.634 94.158 446.212 Q 102.283 443.824 109.879 441.455 Q 125.062 436.717 138.268 432.038 L 141.723 430.794 Q 169.769 420.633 188.29 410.717 Q 221.063 407.898 238.087 393.616 L 237.94 391.863 L 229.717 394.34 L 227.867 394.497 L 227.71 392.744 Q 251.752 389.132 260.993 381.927 Q 307.765 345.884 331.739 330.779 Q 405.578 276.587 401.417 226.682 C 401.422 226.624 401.422 226.565 401.417 226.506 Q 401.006 221.661 373.753 191.207 Q 371.424 188.593 368.859 185.793 Q 368.213 179.01 390.963 166.215 Z  M 315.675 283.792 L 272.515 317.995 Q 224.441 349.516 220.721 349.839 Q 154.899 386.058 131.895 392.333 C 129.791 392.939 127.639 393.365 125.463 393.606 L 123.603 393.762 Q 125.914 385.168 191.863 254.053 Q 220.907 251.547 283.4 226.947 L 293.63 226.066 Q 325.229 223.354 340.784 238.126 L 341.175 242.629 L 341.332 244.479 Q 329.683 277.958 315.675 283.792 Z  M 342.712 141.224 Q 335.928 149.319 305.798 168.741 Q 295.803 169.612 231.499 197.668 C 230.671 197.279 229.805 196.981 228.914 196.777 C 227.502 196.459 226.049 196.363 224.607 196.493 L 224.343 193.429 Q 223.55 184.217 232.644 170.19 Q 237.627 143.7 243.627 140.088 L 279.308 59.72 Q 278.682 52.261 302.205 48.247 L 307.315 47.807 L 307.707 52.408 Q 330.819 48.883 336.389 48.394 Q 376.279 44.919 380.293 63.019 C 380.473 63.839 380.6 64.669 380.674 65.505 L 382.319 65.368 L 383.924 65.221 L 383.229 57.145 L 386.714 56.842 Q 397.619 62.833 399.675 71.085 C 399.88 71.905 400.021 72.74 400.096 73.581 Q 400.683 80.385 392.872 90.321 C 390.708 90.507 389.485 88.999 389.21 85.778 L 385.716 86.082 L 384.923 95.871 Q 363.387 128.175 353.598 129.046 Q 344.817 141.038 342.712 141.224 Z " fill="rgb(245,220,94)"/></g></g></svg>