<?xml version="1.0" encoding="UTF-8" standalone="no"?><!-- Generator: Gravit.io --><svg xmlns="http://www.w3.org/2000/svg" xmlns:xlink="http://www.w3.org/1999/xlink" style="isolation:isolate" viewBox="0 0 500 500" width="500pt" height="500pt"><defs><clipPath id="_clipPath_7ZJPwuPsUzuzMAuhfJKOVFwutW1JuUOE"><rect width="500" height="500"/></clipPath></defs><g clip-path="url(#_clipPath_7ZJPwuPsUzuzMAuhfJKOVFwutW1JuUOE)"><ellipse vector-effect="non-scaling-stroke" cx="329.5" cy="275" rx="126.5" ry="123" fill="rgb(255,255,255)"/><g><g><path d=" M 260.655 275.273 C 261.582 258.614 269.752 243.921 282.059 233.502 L 282.059 233.502 C 294.149 223.269 310.41 217.032 328.149 217.021 L 328.149 217.021 C 345.887 217.032 362.148 223.269 374.238 233.502 L 374.238 233.502 C 386.545 243.921 394.715 258.614 395.654 275.273 C 396.592 292.404 389.713 308.335 377.626 320.125 L 377.626 320.125 C 365.316 332.124 347.775 339.664 328.16 339.664 L 328.16 339.664 C 308.533 339.664 290.981 332.124 278.659 320.125 L 278.659 320.125 C 266.584 308.335 259.705 292.404 260.655 275.273 L 260.655 275.273 Z " fill="rgb(0,83,133)"/></g><g><path d=" M 153.145 309.007 C 153.256 315.51 155.353 328.185 158.466 338.107 L 158.466 338.107 C 165.024 359.059 176.151 378.457 191.65 395.554 L 191.65 395.554 C 207.546 413.106 227.096 427.225 249.704 437.226 L 249.704 437.226 C 273.471 447.759 299.227 453.134 325.93 453.08 L 325.93 453.08 C 352.644 453.035 378.387 447.572 402.153 436.975 L 402.153 436.975 C 424.742 426.863 444.292 412.711 460.177 395.113 L 460.177 395.113 C 475.652 377.948 486.759 358.519 493.326 337.556 L 493.326 337.556 C 496.65 326.958 498.713 316.216 499.563 305.432 L 499.563 305.432 C 500.391 294.812 500.038 284.158 498.537 273.53 L 498.537 273.53 C 495.59 252.809 488.415 233.358 477.388 215.627 C 467.262 199.347 454.259 185.084 438.781 173.073 L 438.781 173.073 L 438.804 173.051 L 438.804 173.051 L 282.633 53.123 L 282.633 53.123 C 282.503 53.01 282.37 52.9 282.237 52.79 L 282.237 52.79 C 271.959 44.942 254.737 44.964 243.478 52.846 L 243.478 52.846 C 232.064 60.827 230.784 73.996 240.907 82.33 L 240.907 82.33 L 240.873 82.353 L 240.873 82.353 L 306.015 135.34 L 107.443 135.549 L 107.443 135.549 C 107.355 135.549 107.267 135.549 107.167 135.549 L 107.167 135.549 C 90.763 135.561 74.999 146.348 71.864 159.946 L 71.864 159.946 C 68.674 173.814 79.823 185.304 96.879 185.369 L 96.879 185.369 L 96.857 185.437 L 96.857 185.437 L 197.5 185.239 L 17.894 323.084 L 17.894 323.084 C 17.673 323.259 17.43 323.426 17.21 323.601 L 17.21 323.601 C 0.287 336.572 -5.2 358.155 5.464 371.81 L 5.464 371.81 C 16.305 385.697 39.321 385.708 56.443 371.866 L 56.443 371.866 L 154.459 291.667 C 154.459 291.667 153.035 302.496 153.145 309.007 L 153.145 309.007 Z  M 405.002 345.251 C 384.813 365.85 356.553 377.507 325.941 377.561 L 325.941 377.561 C 295.319 377.617 267.047 366.048 246.844 345.502 L 246.844 345.502 C 236.976 335.481 229.724 323.988 225.242 311.703 L 225.242 311.703 C 220.87 299.648 219.159 286.863 220.285 273.959 L 220.285 273.959 C 221.378 261.33 225.098 249.296 231.115 238.402 L 231.115 238.402 C 237.021 227.694 245.134 218.024 255.147 209.834 L 255.147 209.834 C 274.774 193.828 299.756 185.171 325.919 185.138 L 325.919 185.138 C 352.082 185.106 377.053 193.695 396.691 209.633 L 396.691 209.633 C 406.692 217.781 414.805 227.418 420.701 238.105 L 420.701 238.105 C 426.717 248.988 430.447 260.999 431.552 273.628 L 431.552 273.628 C 432.666 286.532 430.967 299.317 426.584 311.381 L 426.584 311.381 C 422.114 323.68 414.87 335.193 405.002 345.251 L 405.002 345.251 Z " fill="rgb(255,112,33)"/></g></g></g></svg>