<?xml version="1.0" encoding="UTF-8" standalone="no"?><!-- Generator: Gravit.io --><svg xmlns="http://www.w3.org/2000/svg" xmlns:xlink="http://www.w3.org/1999/xlink" style="isolation:isolate" viewBox="0 0 500 500" width="500pt" height="500pt"><defs><clipPath id="_clipPath_nwHITIqracxrkxXwuV6ZJm6c0fCqGjCK"><rect width="500" height="500"/></clipPath></defs><g clip-path="url(#_clipPath_nwHITIqracxrkxXwuV6ZJm6c0fCqGjCK)"><path d=" M 40 252 L 169 399 L 372 443 L 279 252 L 40 252 Z " fill="rgb(255,133,0)"/><path d=" M 40 252 L 169 105 L 372 62 L 279 252 L 40 252 Z " fill="rgb(255,102,0)"/><path d=" M 372 62 L 279 252 L 372 443 L 422 252 L 372 62 Z " fill="rgb(47,26,18)"/><path d=" M 333 142 L 219 156 L 152 252 L 208 252 L 242 195 L 310 189 L 333 142 Z " fill="rgb(65,36,25)"/><path d=" M 152 252 L 208 252 L 242 310 L 310 315 L 333 363 L 219 349 L 152 252 Z " fill="rgb(34,19,13)"/></g></svg>