<?xml version="1.0" encoding="UTF-8" standalone="no"?><!-- Generator: Gravit.io --><svg xmlns="http://www.w3.org/2000/svg" xmlns:xlink="http://www.w3.org/1999/xlink" style="isolation:isolate" viewBox="0 0 500 500" width="500pt" height="500pt"><defs><clipPath id="_clipPath_SMzH8WVtK0nyEqYJgvCFSx13maME6fze"><rect width="500" height="500"/></clipPath></defs><g clip-path="url(#_clipPath_SMzH8WVtK0nyEqYJgvCFSx13maME6fze)"><rect width="500" height="500" style="fill:rgb(0,0,0)" fill-opacity="0"/><linearGradient id="_lgradient_0" x1="0.08223523670082983" y1="0.15425023877745944" x2="0.9743777452415814" y2="0.8075453677172878" gradientTransform="matrix(481.659,0,0,500,9.17,0)" gradientUnits="userSpaceOnUse"><stop offset="0%" stop-opacity="1" style="stop-color:rgb(60,0,255)"/><stop offset="100%" stop-opacity="1" style="stop-color:rgb(255,0,102)"/></linearGradient><path d=" M 335.46 146.848 C 358.731 136.074 379.156 135.479 379.156 131.089 L 379.156 131.089 L 379.156 131.089 Q 379.156 116.046 366.62 105.301 L 366.62 105.301 L 366.62 105.301 Q 351.339 94.361 336.892 90.974 C 310.261 84.731 289.199 88.645 278.153 90.974 C 240.276 98.96 223.205 122.846 212.609 141.476 L 212.609 141.476 L 212.609 141.476 Q 190.402 180.516 190.402 229.943 L 190.402 229.943 L 190.402 229.943 Q 190.402 267.908 204.729 298.352 L 204.729 298.352 L 204.729 298.352 Q 219.056 328.797 246.276 346.705 L 246.276 346.705 L 246.276 346.705 Q 273.497 364.613 309.314 364.613 L 309.314 364.613 L 309.314 364.613 Q 343.115 364.628 366.62 356.734 C 400.329 345.412 420.067 326.336 432.881 315.903 C 477.424 279.634 497.709 351.719 488.755 371.777 L 488.755 371.777 L 488.755 371.777 Q 479.801 391.834 460.46 414.398 L 460.46 414.398 L 460.46 414.398 Q 441.119 436.963 415.331 455.946 L 415.331 455.946 L 415.331 455.946 Q 389.543 474.928 351.219 487.464 L 351.219 487.464 L 351.219 487.464 Q 312.895 500 270.632 500 L 270.632 500 L 270.632 500 Q 214.758 500 167.122 483.166 L 167.122 483.166 L 167.122 483.166 Q 119.486 466.332 84.385 435.172 L 84.385 435.172 L 84.385 435.172 Q 49.285 404.011 29.228 356.734 L 29.228 356.734 L 29.228 356.734 Q 9.17 309.456 9.17 250.716 L 9.17 250.716 L 9.17 250.716 Q 9.17 134.67 78.655 67.335 L 78.655 67.335 L 78.655 67.335 Q 148.139 0 260.603 0 L 260.603 0 L 260.603 0 Q 317.91 0 366.62 19.341 L 366.62 19.341 L 366.62 19.341 Q 415.331 38.682 443.984 73.066 L 443.984 73.066 L 443.984 73.066 Q 472.637 107.45 472.637 148.281 L 472.637 148.281 L 472.637 148.281 Q 472.637 195.559 441.119 233.883 L 441.119 233.883 L 441.119 233.883 Q 409.6 272.206 359.457 272.206 L 359.457 272.206 L 359.457 272.206 Q 330.804 272.206 307.881 256.447 L 307.881 256.447 L 307.881 256.447 Q 284.958 240.688 284.958 211.318 L 284.958 211.318 L 284.958 211.318 Q 284.958 197.708 298.21 173.352 L 298.21 173.352 L 298.21 173.352 Q 317.21 155.298 335.46 146.848 Z " fill="url(#_lgradient_0)"/></g></svg>