<?xml version="1.0" encoding="UTF-8" standalone="no"?><!-- Generator: Gravit.io --><svg xmlns="http://www.w3.org/2000/svg" xmlns:xlink="http://www.w3.org/1999/xlink" style="isolation:isolate" viewBox="0 0 512 512" width="512pt" height="512pt"><defs><clipPath id="_clipPath_Brgv0xXQDo2xDEAATy5GdkiK663FQ968"><rect width="512" height="512"/></clipPath></defs><g clip-path="url(#_clipPath_Brgv0xXQDo2xDEAATy5GdkiK663FQ968)"><g><g><path d=" M 255.725 512 L 72.362 460.819 L 31.5 0 L 480.5 0 L 439.595 460.746 L 255.725 512 Z " fill="rgb(38,77,228)"/><path d=" M 404.576 431.408 L 439.532 37.679 L 256 37.679 L 256 472.824 L 404.576 431.408 Z " fill="rgb(41,101,241)"/><path d=" M 125.175 208.59 L 130.213 265.107 L 256 265.107 L 256 208.59 L 125.175 208.59 Z " fill="rgb(235,235,235)"/><path d=" M 115.052 94.197 L 120.161 150.715 L 256 150.715 L 256 94.197 L 255.806 94.197 L 115.052 94.197 Z " fill="rgb(235,235,235)"/><path d=" M 256 355.372 L 255.754 355.438 L 193.152 338.442 L 189.15 293.366 L 158.731 293.366 L 132.724 293.366 L 140.599 382.107 L 255.741 414.246 L 256 414.174 L 256 355.372 Z " fill="rgb(235,235,235)"/><path d=" M 386.465 208.59 L 396.613 94.197 L 255.806 94.197 L 255.806 150.715 L 335.011 150.715 L 329.897 208.59 L 255.806 208.59 L 255.806 265.107 L 325.022 265.107 L 318.498 338.406 L 255.806 355.419 L 255.806 414.219 L 371.039 382.107 L 371.885 372.558 L 385.094 223.766 L 386.465 208.59 Z " fill="rgb(255,255,255)"/></g></g></g></svg>