<?xml version="1.0" encoding="UTF-8" standalone="no"?><!-- Generator: Gravit.io --><svg xmlns="http://www.w3.org/2000/svg" xmlns:xlink="http://www.w3.org/1999/xlink" style="isolation:isolate" viewBox="0 0 48 48" width="48pt" height="48pt"><defs><clipPath id="_clipPath_rIcnYR9q5R0cU7izoc7RiKrKsYbpD5xE"><rect width="48" height="48"/></clipPath></defs><g clip-path="url(#_clipPath_rIcnYR9q5R0cU7izoc7RiKrKsYbpD5xE)"><clipPath id="_clipPath_Pb7eTX0ZcEIa4OuzYXEbQl08QBhsV2wx"><rect x="0" y="0" width="48" height="48" transform="matrix(1,0,0,1,0,0)" fill="rgb(255,255,255)"/></clipPath><g clip-path="url(#_clipPath_Pb7eTX0ZcEIa4OuzYXEbQl08QBhsV2wx)"><g><clipPath id="_clipPath_hhcPqRP8nxmmcfPBtNt2paiLsgOG8RgQ"><rect x="0" y="0" width="48" height="48" transform="matrix(1,0,0,1,0,0)" fill="rgb(255,255,255)"/></clipPath><g clip-path="url(#_clipPath_hhcPqRP8nxmmcfPBtNt2paiLsgOG8RgQ)"><g><g><clipPath id="_clipPath_vvz8Diolk75NATKZiYSTWKukPlb2WxZo"><rect x="0" y="0" width="48" height="48" transform="matrix(1,0,0,1,0,0)" fill="rgb(255,255,255)"/></clipPath><g clip-path="url(#_clipPath_vvz8Diolk75NATKZiYSTWKukPlb2WxZo)"><g><g><g><clipPath id="_clipPath_9NlCjV8ZqAlAL7iA2jisltsmuvSRTYMz"><rect x="0" y="0" width="48" height="48" transform="matrix(1,0,0,1,0,0)" fill="rgb(255,255,255)"/></clipPath><g clip-path="url(#_clipPath_9NlCjV8ZqAlAL7iA2jisltsmuvSRTYMz)"><g><g><g><g><linearGradient id="_lgradient_0" x1="0.4410892117748433" y1="0.9897840026551745" x2="0.43861385885351756" y2="0.7770076322202546" gradientTransform="matrix(38.271,0,0,28.2,5.218,11.656)" gradientUnits="userSpaceOnUse"><stop offset="0%" stop-opacity="1" style="stop-color:rgb(204,204,204)"/><stop offset="100%" stop-opacity="1" style="stop-color:rgb(230,230,230)"/></linearGradient><path d=" M 6.544 11.656 C 5.809 11.656 5.218 12.249 5.218 12.984 L 5.218 38.528 C 5.218 39.263 5.809 39.856 6.544 39.856 L 23.75 39.856 L 24.956 39.856 L 42.163 39.856 C 42.898 39.856 43.489 39.263 43.489 38.528 L 43.489 12.984 C 43.489 12.249 42.898 11.656 42.163 11.656 L 24.956 11.656 L 23.75 11.656 L 6.544 11.656 L 6.544 11.656 L 6.544 11.656 Z " fill="url(#_lgradient_0)"/><linearGradient id="_lgradient_1" x1="0.22674588844161356" y1="0.9985666579959884" x2="0.2164125370119888" y2="0.6061393160146862" gradientTransform="matrix(38.356,0,0,31.878,5.224,7.926)" gradientUnits="userSpaceOnUse"><stop offset="0%" stop-opacity="1" style="stop-color:rgb(205,59,64)"/><stop offset="98.26086956521739%" stop-opacity="1" style="stop-color:rgb(250,124,0)"/></linearGradient><path d=" M 18.474 7.927 C 18.372 7.924 18.248 7.928 18.087 7.928 L 5.918 7.928 C 5.536 7.928 5.229 8.238 5.229 8.622 L 5.229 12.851 C 5.228 12.867 5.224 12.882 5.224 12.898 L 5.224 38.475 C 5.224 39.211 5.817 39.804 6.554 39.804 L 42.252 39.804 C 42.988 39.804 43.58 39.211 43.58 38.475 L 43.58 12.898 C 43.58 12.162 42.988 11.569 42.252 11.569 L 20.936 11.569 C 20.923 11.552 20.915 11.543 20.901 11.525 C 20.409 10.862 19.667 9.076 19.182 8.429 C 18.891 8.005 18.782 7.935 18.474 7.927 L 18.474 7.927 L 18.474 7.927 L 18.474 7.927 Z " fill="url(#_lgradient_1)"/><path d=" M 3.336 12.522 C 2.698 12.522 2.141 13.07 2.184 13.746 L 3.696 37.289 C 3.74 37.965 4.21 38.513 4.848 38.513 L 19.79 38.513 L 24.167 38.513 L 39.109 38.513 C 39.747 38.513 40.217 37.965 40.26 37.289 L 41.773 13.746 C 41.816 13.07 41.259 12.522 40.621 12.522 L 24.167 12.522 L 19.79 12.522 L 3.336 12.522 L 3.336 12.522 L 3.336 12.522 Z " fill="rgb(221,221,221)"/><g style="opacity:0.3;" filter="url(#hZIrwLvZ9xZoHKko71hyXZxYawqld490)"><g style="opacity:0.3;"><g style="opacity:0.3;"><g style="opacity:0.3;"><g opacity="0.3"><path d=" M 4.841 2.853 C 4.839 2.853 4.837 2.855 4.837 2.859 L 4.84 2.935 L 4.84 2.937 C 4.84 2.939 4.841 2.94 4.842 2.94 L 4.913 2.94 C 4.914 2.94 4.915 2.939 4.915 2.937 L 4.917 2.859 C 4.917 2.855 4.916 2.853 4.914 2.853 L 4.841 2.853 L 4.841 2.853 L 4.841 2.853 L 4.841 2.853 Z " fill-rule="evenodd" fill="rgb(0,0,0)"/></g></g></g></g></g><defs><filter id="hZIrwLvZ9xZoHKko71hyXZxYawqld490" x="-200%" y="-200%" width="400%" height="400%" filterUnits="objectBoundingBox" color-interpolation-filters="sRGB"><feGaussianBlur xmlns="http://www.w3.org/2000/svg" stdDeviation="1.0876405761658698"/></filter></defs><linearGradient id="_lgradient_2" x1="0.4418976504494039" y1="1.041800431030584" x2="0.8274912993062673" y2="-0.12343238024652559" gradientTransform="matrix(40.502,0,0,25.636,4.032,14.344)" gradientUnits="userSpaceOnUse"><stop offset="2.1739130434782608%" stop-opacity="1" style="stop-color:rgb(255,0,128)"/><stop offset="100%" stop-opacity="1" style="stop-color:rgb(250,124,0)"/></linearGradient><path d=" M 5.211 14.344 C 4.558 14.344 3.999 14.891 4.033 15.567 L 5.177 38.757 C 5.21 39.433 5.702 39.98 6.355 39.98 L 21.976 39.98 L 26.454 39.98 L 42.458 39.932 C 43.111 39.93 43.61 39.385 43.636 38.708 L 44.533 15.567 C 44.559 14.891 44.008 14.344 43.355 14.344 L 26.522 14.344 L 22.044 14.344 L 5.211 14.344 L 5.211 14.344 L 5.211 14.344 Z " fill="url(#_lgradient_2)"/></g></g></g></g></g></g></g></g></g></g></g></g><circle vector-effect="non-scaling-stroke" cx="24.468749999999996" cy="27.703125000000004" r="10.265624999999996" fill="none"/></g></g></g></svg>