<?xml version="1.0" encoding="UTF-8" standalone="no"?><!-- Generator: Gravit.io --><svg xmlns="http://www.w3.org/2000/svg" xmlns:xlink="http://www.w3.org/1999/xlink" style="isolation:isolate" viewBox="0 0 500 500" width="500pt" height="500pt"><defs><clipPath id="_clipPath_xdgheqgMyRDtsNMWianPUkVOKTSeikZF"><rect width="500" height="500"/></clipPath></defs><g clip-path="url(#_clipPath_xdgheqgMyRDtsNMWianPUkVOKTSeikZF)"><g><path d="M 24.865 0 L 475.135 0 C 488.858 0 500 11.142 500 24.865 L 500 475.135 C 500 488.858 488.858 500 475.135 500 L 24.865 500 C 11.142 500 0 488.858 0 475.135 L 0 24.865 C 0 11.142 11.142 0 24.865 0 Z" style="stroke:none;fill:#F08705;stroke-miterlimit:10;"/><path d=" M 500 478.504 C 500 490.372 490.267 500 478.497 500 L 478.497 500 L 165.233 500 L 63.83 398.119 L 126.981 296.238 L 314.169 66.279 L 500 255.486 L 500 478.504 Z " fill="rgb(223,108,12)"/><path d=" M 408.556 277.877 L 354.912 277.877 L 298.325 182.266 C 311.227 179.579 320.507 168.383 320.281 155.396 L 320.281 83.52 C 320.281 68.294 308.058 55.979 292.666 55.979 L 292.44 55.979 L 198.053 55.979 C 182.662 55.979 170.213 68.07 170.213 83.296 L 170.213 83.52 L 170.213 155.396 C 170.213 168.383 179.267 179.579 192.168 182.266 L 135.582 277.877 L 82.164 277.877 C 66.772 277.877 54.323 289.969 54.323 305.195 L 54.323 305.419 L 54.323 377.295 C 54.323 392.521 66.546 404.837 81.938 404.837 L 82.164 404.837 L 176.55 404.837 C 191.942 404.837 204.391 392.745 204.391 377.519 L 204.391 377.295 L 204.391 305.419 C 204.391 290.193 192.168 277.877 176.777 277.877 L 176.55 277.877 L 167.497 277.877 L 223.631 182.938 L 267.316 182.938 L 323.676 277.877 L 314.396 277.877 C 299.004 277.877 286.555 289.969 286.555 305.195 L 286.555 305.419 L 286.555 377.295 C 286.555 392.521 298.778 404.837 314.169 404.837 L 314.396 404.837 L 408.782 404.837 C 424.174 404.837 436.623 392.745 436.623 377.519 L 436.623 377.295 L 436.623 305.419 C 436.623 290.193 424.4 277.877 409.009 277.877 C 408.782 277.877 408.782 277.877 408.556 277.877 Z " fill="rgb(255,255,255)"/></g></g></svg>