<?xml version="1.0" encoding="UTF-8" standalone="no"?><!-- Generator: Gravit.io --><svg xmlns="http://www.w3.org/2000/svg" xmlns:xlink="http://www.w3.org/1999/xlink" style="isolation:isolate" viewBox="0 0 1000 1000" width="1000pt" height="1000pt"><defs><clipPath id="_clipPath_szvTXBoFffB3uB8PbthX2jLRYl5VL9BH"><rect width="1000" height="1000"/></clipPath></defs><g clip-path="url(#_clipPath_szvTXBoFffB3uB8PbthX2jLRYl5VL9BH)"><path d=" M 584.473 886.126 L 589.333 887.73 L 594.128 889.318 L 598.802 890.877 L 603.349 892.398 L 607.776 893.877 L 612.088 895.308 L 616.291 896.683 L 620.39 897.999 L 624.391 899.249 L 628.299 900.427 L 632.121 901.527 L 635.862 902.544 L 639.528 903.472 L 643.123 904.305 L 646.66 905.046 L 650.164 905.737 L 653.555 906.185 L 656.924 906.574 L 660.254 906.855 L 663.547 907.016 L 666.806 907.053 L 670.036 906.965 L 673.244 906.748 L 676.432 906.4 L 679.607 905.919 L 682.772 905.301 L 685.934 904.544 L 689.096 903.645 L 692.263 902.602 L 695.441 901.412 L 698.631 900.086 L 701.83 898.684 L 705.08 896.948 L 708.34 895.142 L 711.613 893.209 L 714.9 891.142 L 718.196 888.95 L 721.497 886.639 L 724.799 884.217 L 728.099 881.69 L 731.391 879.067 L 734.673 876.355 L 737.94 873.561 L 741.189 870.691 L 744.414 867.755 L 747.614 864.758 L 750.786 861.711 L 753.943 858.638 L 757.017 855.48 L 760.072 852.304 L 763.091 849.094 L 766.07 845.847 L 769.009 842.563 L 771.908 839.244 L 774.765 835.89 L 777.582 832.5 L 780.356 829.077 L 783.089 825.62 L 785.779 822.129 L 788.426 818.606 L 791.029 815.051 L 793.589 811.464 L 796.108 807.848 L 798.605 804.217 L 801.004 800.52 L 803.381 796.809 L 805.715 793.071 L 808.004 789.305 L 810.246 785.512 L 812.441 781.691 L 814.589 777.843 L 816.691 773.97 L 818.744 770.071 L 820.75 766.147 L 822.707 762.199 L 824.616 758.227 L 826.475 754.232 L 828.286 750.214 L 830.051 746.177 L 831.792 742.128 L 833.424 738.034 L 835.031 733.931 L 836.591 729.81 L 838.101 725.67 L 839.56 721.512 L 840.968 717.336 L 842.324 713.143 L 843.629 708.934 L 844.883 704.709 L 846.084 700.47 L 847.233 696.215 L 848.331 691.947 L 849.375 687.666 L 850.368 683.373 L 851.311 679.068 L 852.228 674.758 L 853.03 670.425 L 853.806 666.087 L 854.532 661.74 L 855.205 657.385 L 855.825 653.022 L 856.391 648.652 L 856.904 644.275 L 857.362 639.893 L 857.767 635.504 L 858.119 631.112 L 858.416 626.715 L 858.659 622.315 L 858.849 617.913 L 858.984 613.508 L 859.07 609.102 L 859.129 604.695 L 859.07 600.289 L 858.984 595.883 L 858.849 591.478 L 858.659 587.076 L 858.416 582.676 L 858.119 578.279 L 857.767 573.886 L 857.362 569.498 L 856.903 565.116 L 856.391 560.739 L 855.825 556.369 L 855.205 552.006 L 854.532 547.651 L 853.806 543.304 L 853.03 538.966 L 852.228 534.633 L 851.311 530.323 L 850.367 526.018 L 849.375 521.724 L 848.33 517.443 L 847.233 513.176 L 846.084 508.921 L 844.882 504.682 L 843.629 500.457 L 842.324 496.248 L 840.967 492.055 L 839.56 487.879 L 838.101 483.721 L 836.591 479.581 L 835.031 475.46 L 833.424 471.357 L 831.792 467.263 L 830.051 463.214 L 828.286 459.177 L 826.475 455.159 L 824.615 451.164 L 822.706 447.192 L 820.749 443.244 L 818.744 439.32 L 816.69 435.421 L 814.589 431.548 L 812.441 427.7 L 810.245 423.879 L 808.003 420.086 L 805.715 416.32 L 803.38 412.582 L 801.004 408.871 L 798.605 405.174 L 796.107 401.548 L 793.585 397.966 L 791.016 394.47 L 788.395 391.092 L 785.72 387.862 L 782.987 384.809 L 780.196 381.961 L 777.342 379.349 L 774.424 377.002 L 771.44 374.949 L 768.387 373.219 L 765.262 371.842 L 762.064 370.847 L 758.789 370.263 L 755.443 370.079 L 752.058 370.115 L 748.496 371.213 L 744.907 372.473 L 741.274 374.014 L 737.605 375.791 L 733.915 377.715 L 730.222 379.698 L 726.539 381.652 L 722.883 383.489 L 719.27 385.121 L 715.715 386.46 L 712.235 387.419 L 708.844 387.907 L 705.559 387.839 L 702.396 387.126 L 699.356 385.755 L 696.384 384.018 L 693.77 380.33 L 691.215 376.217 L 688.761 371.33 L 686.398 365.624 L 684.098 359.127 L 681.836 351.87 L 679.585 343.884 L 677.318 335.196 L 675.011 325.838 L 672.636 315.84 L 670.167 305.23 L 667.578 294.04 L 664.842 282.298 L 661.935 270.035 L 658.849 257.316 L 655.664 244.351 L 651.942 230.471 L 648.106 216.523 L 644.066 202.477 L 639.814 188.445 L 635.362 174.575 L 630.724 161.017 L 625.912 147.918 L 620.939 135.429 L 615.818 123.696 L 610.562 112.869 L 605.184 103.097 L 599.697 94.528 L 594.114 87.311 L 588.447 81.594 L 582.714 77.364 L 576.946 73.959 L 571.081 74.716 L 565.208 76.274 L 559.322 79.27 L 553.432 83.693 L 547.555 89.37 L 541.704 96.128 L 535.891 103.793 L 530.131 112.193 L 524.438 121.155 L 518.825 130.505 L 513.309 140.071 L 507.9 149.679 L 502.614 159.156 L 497.465 168.33 L 492.454 177.095 L 487.516 185.621 L 482.96 192.396 L 478.474 198.781 L 474.113 204.453 L 469.872 209.365 L 465.732 213.537 L 461.674 216.99 L 457.677 219.746 L 453.725 221.825 L 449.795 223.248 L 445.869 224.036 L 441.927 224.21 L 437.951 223.791 L 433.922 222.8 L 429.819 221.257 L 425.633 219.224 L 421.401 216.927 L 416.888 213.583 L 412.328 210.093 L 407.679 206.351 L 402.948 202.414 L 398.153 198.38 L 393.307 194.348 L 388.432 190.414 L 383.54 186.677 L 378.65 183.235 L 373.777 180.185 L 368.94 177.626 L 364.153 175.656 L 359.434 174.372 L 354.8 173.873 L 350.256 174.166 L 345.762 174.9 L 341.556 177.939 L 337.41 181.42 L 333.376 185.698 L 329.458 190.766 L 325.648 196.529 L 321.944 202.891 L 318.335 209.755 L 314.819 217.026 L 311.388 224.608 L 308.036 232.405 L 304.756 240.321 L 301.542 248.26 L 298.389 256.127 L 295.291 263.824 L 292.238 271.295 L 289.208 278.634 L 286.257 285.005 L 283.321 291.177 L 280.412 296.989 L 277.531 302.432 L 274.675 307.537 L 271.842 312.332 L 269.028 316.847 L 266.233 321.111 L 263.451 325.153 L 260.681 329.004 L 257.921 332.691 L 255.166 336.245 L 252.417 339.695 L 249.669 343.07 L 246.92 346.399 L 244.17 349.705 L 241.407 353.036 L 238.643 356.374 L 235.882 359.727 L 233.122 363.096 L 230.368 366.482 L 227.624 369.888 L 224.893 373.313 L 222.179 376.758 L 219.484 380.226 L 216.811 383.716 L 214.163 387.23 L 211.545 390.769 L 208.959 394.334 L 206.407 397.926 L 203.892 401.544 L 201.396 405.175 L 198.996 408.872 L 196.619 412.583 L 194.286 416.32 L 191.997 420.086 L 189.754 423.88 L 187.56 427.701 L 185.411 431.548 L 183.31 435.422 L 181.257 439.321 L 179.251 443.245 L 177.294 447.193 L 175.384 451.165 L 173.525 455.16 L 171.715 459.177 L 169.949 463.215 L 168.209 467.264 L 166.576 471.357 L 164.969 475.461 L 163.41 479.582 L 161.9 483.722 L 160.441 487.88 L 159.032 492.056 L 157.676 496.249 L 156.372 500.458 L 155.118 504.683 L 153.916 508.922 L 152.767 513.176 L 151.67 517.444 L 150.626 521.725 L 149.633 526.019 L 148.69 530.323 L 147.772 534.634 L 146.97 538.967 L 146.195 543.305 L 145.469 547.652 L 144.796 552.007 L 144.176 556.37 L 143.609 560.74 L 143.097 565.117 L 142.638 569.499 L 142.234 573.887 L 141.882 578.28 L 141.585 582.677 L 141.342 587.077 L 141.152 591.479 L 141.017 595.884 L 140.931 600.29 L 140.872 604.696 L 140.931 609.103 L 141.017 613.509 L 141.152 617.914 L 141.342 622.316 L 141.585 626.716 L 141.883 631.113 L 142.234 635.505 L 142.638 639.894 L 143.098 644.276 L 143.609 648.653 L 144.176 653.023 L 144.796 657.386 L 145.469 661.741 L 146.195 666.088 L 146.97 670.426 L 147.772 674.759 L 148.69 679.069 L 149.633 683.374 L 150.626 687.667 L 151.671 691.949 L 152.767 696.216 L 153.916 700.471 L 155.118 704.71 L 156.372 708.935 L 157.676 713.144 L 159.033 717.337 L 160.441 721.513 L 161.9 725.671 L 163.41 729.811 L 164.97 733.932 L 166.576 738.035 L 168.209 742.129 L 169.95 746.178 L 171.715 750.215 L 173.526 754.233 L 175.386 758.228 L 177.295 762.2 L 179.252 766.148 L 181.258 770.072 L 183.311 773.971 L 185.412 777.844 L 187.56 781.692 L 189.756 785.513 L 191.998 789.306 L 194.286 793.072 L 196.621 796.81 L 198.997 800.521 L 201.397 804.217 L 203.893 807.849 L 206.412 811.464 L 208.972 815.052 L 211.575 818.607 L 214.223 822.13 L 216.912 825.621 L 219.645 829.078 L 222.42 832.501 L 225.235 835.89 L 228.094 839.245 L 230.993 842.564 L 233.931 845.848 L 236.911 849.095 L 239.93 852.305 L 242.984 855.481 L 246.059 858.639 L 249.215 861.713 L 252.392 864.768 L 255.603 867.786 L 258.849 870.765 L 262.133 873.705 L 265.453 876.603 L 268.807 879.461 L 272.196 882.277 L 275.619 885.052 L 279.076 887.784 L 282.568 890.474 L 286.09 893.121 L 289.646 895.725 L 293.233 898.284 L 296.849 900.804 L 300.48 903.301 L 304.176 905.697 L 307.879 908.056 L 311.597 910.341 L 315.324 912.533 L 319.052 914.617 L 322.778 916.577 L 326.492 918.396 L 330.186 920.06 L 333.857 921.551 L 337.496 922.854 L 341.095 923.954 L 344.648 924.834 L 348.148 925.479 L 351.589 925.872 L 354.97 926.024 L 358.316 926.041 L 361.494 925.417 L 364.648 924.664 L 367.759 923.678 L 370.84 922.453 L 373.906 921.009 L 376.973 919.368 L 380.057 917.549 L 383.177 915.572 L 386.347 913.457 L 389.583 911.225 L 392.902 908.895 L 396.321 906.489 L 399.855 904.025 L 403.523 901.525 L 407.324 899.006 L 411.199 896.478 L 415.463 894.001 L 419.807 891.55 L 424.302 889.15 L 428.951 886.818 L 433.747 884.566 L 438.68 882.412 L 443.741 880.368 L 448.921 878.449 L 454.213 876.67 L 459.605 875.046 L 465.092 873.591 L 470.662 872.319 L 476.309 871.245 L 482.022 870.384 L 487.788 869.729 L 493.585 869.187 L 499.468 869.194 L 505.359 869.313 L 511.264 869.632 L 517.175 870.156 L 523.081 870.866 L 528.969 871.747 L 534.828 872.781 L 540.647 873.95 L 546.415 875.237 L 552.119 876.625 L 557.748 878.098 L 563.293 879.636 L 568.739 881.225 L 574.076 882.845 L 579.305 884.482 L 584.473 886.126 Z " fill="rgb(203,72,1)"/><path d=" M 543.676 778.94 L 546.141 779.744 L 548.588 780.569 L 551.006 781.432 L 553.396 782.336 L 555.765 783.279 L 558.117 784.258 L 560.459 785.272 L 562.796 786.318 L 565.136 787.394 L 567.482 788.499 L 569.842 789.631 L 572.221 790.787 L 574.624 791.965 L 577.059 793.164 L 579.526 794.381 L 582.011 795.606 L 584.599 796.862 L 587.206 798.11 L 589.847 799.345 L 592.52 800.554 L 595.219 801.722 L 597.94 802.837 L 600.677 803.885 L 603.424 804.851 L 606.177 805.723 L 608.93 806.486 L 611.677 807.128 L 614.414 807.634 L 617.134 807.991 L 619.833 808.185 L 622.507 808.219 L 625.169 808.165 L 627.749 807.673 L 630.311 807.091 L 632.841 806.344 L 635.334 805.426 L 637.793 804.35 L 640.218 803.124 L 642.609 801.762 L 644.968 800.274 L 647.295 798.671 L 649.591 796.963 L 651.856 795.164 L 654.092 793.282 L 656.299 791.331 L 658.477 789.32 L 660.631 787.262 L 662.77 785.181 L 664.853 783.042 L 666.923 780.89 L 668.969 778.714 L 670.987 776.514 L 672.978 774.29 L 674.942 772.041 L 676.879 769.768 L 678.787 767.471 L 680.667 765.152 L 682.519 762.809 L 684.341 760.444 L 686.135 758.057 L 687.899 755.648 L 689.633 753.217 L 691.34 750.768 L 693.032 748.307 L 694.658 745.803 L 696.268 743.288 L 697.849 740.756 L 699.4 738.204 L 700.919 735.633 L 702.407 733.045 L 703.862 730.438 L 705.286 727.813 L 706.677 725.171 L 708.036 722.512 L 709.362 719.837 L 710.656 717.146 L 711.916 714.439 L 713.143 711.717 L 714.339 708.981 L 715.518 706.238 L 716.624 703.464 L 717.713 700.684 L 718.77 697.892 L 719.793 695.087 L 720.781 692.269 L 721.735 689.44 L 722.654 686.599 L 723.539 683.747 L 724.388 680.884 L 725.202 678.012 L 725.981 675.129 L 726.724 672.237 L 727.432 669.337 L 728.104 666.428 L 728.744 663.511 L 729.365 660.59 L 729.909 657.654 L 730.434 654.715 L 730.926 651.77 L 731.382 648.819 L 731.802 645.863 L 732.186 642.902 L 732.533 639.936 L 732.844 636.967 L 733.118 633.994 L 733.356 631.017 L 733.558 628.038 L 733.723 625.057 L 733.851 622.074 L 733.943 619.09 L 734.001 616.104 L 734.041 613.118 L 734.001 610.133 L 733.943 607.147 L 733.851 604.163 L 733.723 601.18 L 733.558 598.199 L 733.356 595.22 L 733.118 592.243 L 732.844 589.27 L 732.533 586.301 L 732.186 583.335 L 731.802 580.374 L 731.382 577.418 L 730.926 574.467 L 730.434 571.522 L 729.909 568.583 L 729.365 565.647 L 728.744 562.726 L 728.104 559.809 L 727.432 556.9 L 726.724 554 L 725.981 551.108 L 725.202 548.225 L 724.388 545.353 L 723.538 542.49 L 722.654 539.638 L 721.735 536.797 L 720.781 533.968 L 719.793 531.15 L 718.77 528.345 L 717.712 525.553 L 716.624 522.773 L 715.518 519.999 L 714.339 517.258 L 713.142 514.536 L 711.913 511.853 L 710.649 509.222 L 709.35 506.656 L 708.015 504.167 L 706.645 501.768 L 705.237 499.473 L 703.793 497.292 L 702.312 495.24 L 700.793 493.33 L 699.236 491.572 L 697.642 489.981 L 696.008 488.569 L 694.339 487.33 L 692.65 486.187 L 690.877 485.511 L 689.086 484.934 L 687.264 484.538 L 685.41 484.33 L 683.528 484.302 L 681.62 484.445 L 679.689 484.749 L 677.737 485.205 L 675.768 485.803 L 673.784 486.534 L 671.787 487.389 L 669.781 488.359 L 667.767 489.434 L 665.75 490.605 L 663.731 491.857 L 661.712 493.153 L 660.69 493.883 L 659.7 494.59 L 657.687 496.016 L 655.67 497.416 L 653.647 498.75 L 651.613 499.975 L 649.76 500.944 L 649.566 501.045 L 647.501 501.917 L 645.415 502.545 L 643.305 502.886 L 641.166 502.894 L 638.995 502.527 L 636.789 501.738 L 634.544 500.483 L 632.256 498.719 L 629.926 496.454 L 627.573 493.912 L 625.107 489.987 L 622.625 485.764 L 620.114 480.997 L 617.581 475.657 L 615.036 469.766 L 612.49 463.348 L 609.952 456.426 L 607.434 449.023 L 604.945 441.162 L 602.496 432.866 L 600.098 424.159 L 597.76 415.064 L 595.493 405.604 L 593.309 395.802 L 591.206 385.704 L 589.149 375.446 L 587.332 364.614 L 585.548 353.757 L 583.825 342.875 L 582.148 332.056 L 580.497 321.413 L 578.849 311.057 L 577.183 301.101 L 575.477 291.656 L 573.709 282.834 L 571.857 274.748 L 569.899 267.509 L 567.814 261.229 L 565.579 256.021 L 563.172 251.995 L 560.594 249.138 L 557.918 246.929 L 554.737 247.969 L 551.459 249.629 L 548.008 252.404 L 544.387 256.281 L 540.617 261.121 L 536.719 266.785 L 532.718 273.134 L 528.632 280.029 L 524.487 287.332 L 520.302 294.902 L 516.1 302.602 L 511.903 310.292 L 507.733 317.833 L 503.612 325.087 L 499.552 331.972 L 495.527 338.644 L 491.746 343.816 L 488.012 348.656 L 484.363 352.894 L 480.797 356.49 L 477.307 359.466 L 473.879 361.843 L 470.506 363.643 L 467.176 364.886 L 463.879 365.595 L 460.607 365.789 L 457.345 365.491 L 454.089 364.721 L 450.824 363.501 L 447.542 361.852 L 444.234 359.825 L 440.916 357.594 L 437.494 354.58 L 434.061 351.459 L 430.605 348.153 L 427.133 344.707 L 423.656 341.196 L 420.185 337.695 L 416.73 334.28 L 413.304 331.025 L 409.915 328.007 L 406.575 325.299 L 403.296 322.977 L 400.085 321.117 L 396.958 319.793 L 393.922 319.081 L 390.98 318.986 L 388.088 319.234 L 385.463 321.271 L 382.889 323.651 L 380.411 326.647 L 378.027 330.254 L 375.727 334.396 L 373.503 338.998 L 371.343 343.984 L 369.238 349.278 L 367.177 354.806 L 365.152 360.491 L 363.152 366.258 L 361.166 372.031 L 359.186 377.736 L 357.201 383.296 L 355.204 388.667 L 353.199 393.928 L 351.121 398.402 L 349.028 402.715 L 346.913 406.737 L 344.775 410.463 L 342.616 413.918 L 340.441 417.125 L 338.254 420.11 L 336.06 422.898 L 333.86 425.513 L 331.661 427.981 L 329.464 430.325 L 327.275 432.572 L 325.095 434.745 L 322.932 436.87 L 320.782 438.969 L 318.645 441.056 L 316.561 443.196 L 314.492 445.348 L 312.446 447.523 L 310.427 449.723 L 308.436 451.948 L 306.472 454.197 L 304.536 456.47 L 302.628 458.766 L 300.748 461.086 L 298.896 463.428 L 297.074 465.793 L 295.28 468.181 L 293.516 470.59 L 291.782 473.02 L 290.075 475.47 L 288.383 477.93 L 286.757 480.435 L 285.147 482.95 L 283.566 485.482 L 282.014 488.034 L 280.496 490.604 L 279.008 493.193 L 277.552 495.8 L 276.129 498.425 L 274.738 501.066 L 273.379 503.725 L 272.052 506.4 L 270.758 509.091 L 269.499 511.798 L 268.272 514.521 L 267.076 517.256 L 265.897 520 L 264.791 522.773 L 263.701 525.554 L 262.645 528.346 L 261.622 531.151 L 260.633 533.968 L 259.68 536.798 L 258.761 539.639 L 257.876 542.491 L 257.027 545.353 L 256.213 548.226 L 255.434 551.108 L 254.691 554 L 253.983 556.901 L 253.311 559.81 L 252.671 562.727 L 252.05 565.647 L 251.506 568.583 L 250.98 571.523 L 250.489 574.468 L 250.032 577.418 L 249.613 580.375 L 249.229 583.336 L 248.882 586.301 L 248.57 589.271 L 248.296 592.244 L 248.059 595.22 L 247.857 598.199 L 247.691 601.181 L 247.564 604.164 L 247.472 607.148 L 247.413 610.133 L 247.373 613.119 L 247.413 616.105 L 247.472 619.09 L 247.564 622.075 L 247.691 625.058 L 247.857 628.039 L 248.059 631.018 L 248.296 633.994 L 248.57 636.968 L 248.882 639.937 L 249.229 642.903 L 249.613 645.864 L 250.032 648.82 L 250.489 651.771 L 250.98 654.716 L 251.507 657.655 L 252.05 660.591 L 252.671 663.512 L 253.311 666.428 L 253.983 669.337 L 254.691 672.238 L 255.435 675.13 L 256.213 678.012 L 257.027 680.885 L 257.877 683.748 L 258.761 686.6 L 259.68 689.44 L 260.633 692.27 L 261.622 695.087 L 262.645 697.892 L 263.703 700.685 L 264.791 703.465 L 265.897 706.239 L 267.076 708.982 L 268.273 711.718 L 269.499 714.44 L 270.759 717.147 L 272.052 719.838 L 273.379 722.513 L 274.738 725.172 L 276.129 727.814 L 277.552 730.438 L 279.008 733.045 L 280.496 735.634 L 282.014 738.205 L 283.566 740.756 L 285.148 743.289 L 286.758 745.803 L 288.383 748.308 L 290.076 750.768 L 291.782 753.218 L 293.517 755.649 L 295.281 758.058 L 297.074 760.445 L 298.897 762.81 L 300.748 765.152 L 302.628 767.472 L 304.537 769.768 L 306.473 772.041 L 308.436 774.29 L 310.427 776.515 L 312.446 778.715 L 314.492 780.89 L 316.561 783.042 L 318.645 785.182 L 320.785 787.264 L 322.936 789.326 L 325.109 791.352 L 327.307 793.332 L 329.528 795.259 L 331.77 797.128 L 334.033 798.931 L 336.318 800.662 L 338.622 802.315 L 340.945 803.883 L 343.286 805.359 L 345.645 806.737 L 348.02 808.01 L 350.411 809.172 L 352.816 810.226 L 355.228 811.222 L 357.67 811.935 L 360.121 812.586 L 362.586 813.122 L 365.073 813.535 L 367.579 813.829 L 370.107 814.006 L 372.658 814.068 L 375.237 814.019 L 377.843 813.862 L 380.478 813.599 L 383.145 813.233 L 385.844 812.767 L 388.578 812.204 L 391.349 811.547 L 394.153 810.805 L 396.979 810.017 L 399.893 809.044 L 402.826 808.035 L 405.792 806.961 L 408.795 805.823 L 411.831 804.628 L 414.897 803.383 L 417.993 802.096 L 421.114 800.772 L 424.261 799.42 L 427.43 798.047 L 430.619 796.66 L 433.826 795.266 L 437.047 793.872 L 440.285 792.486 L 443.532 791.112 L 446.785 789.746 L 450.052 788.442 L 453.323 787.156 L 456.595 785.906 L 459.868 784.696 L 463.139 783.531 L 466.407 782.415 L 469.669 781.353 L 472.922 780.347 L 476.165 779.402 L 479.396 778.523 L 482.612 777.712 L 485.811 776.974 L 488.992 776.313 L 492.151 775.733 L 495.288 775.23 L 498.415 774.77 L 501.482 774.509 L 504.533 774.293 L 507.557 774.155 L 510.55 774.102 L 513.511 774.13 L 516.439 774.236 L 519.332 774.418 L 522.189 774.672 L 525.011 774.996 L 527.795 775.387 L 530.54 775.842 L 533.245 776.357 L 535.909 776.931 L 538.532 777.56 L 541.114 778.237 L 543.676 778.94 Z " fill="rgb(243,138,1)"/></g></svg>