<?xml version="1.0" encoding="UTF-8" standalone="no"?><!-- Generator: Gravit.io --><svg xmlns="http://www.w3.org/2000/svg" xmlns:xlink="http://www.w3.org/1999/xlink" style="isolation:isolate" viewBox="0 0 500 500" width="500pt" height="500pt"><defs><clipPath id="_clipPath_U8fGeR7W8JNG3LrvrKfbOtiwpPV0JIle"><rect width="500" height="500"/></clipPath></defs><g clip-path="url(#_clipPath_U8fGeR7W8JNG3LrvrKfbOtiwpPV0JIle)"><g><radialGradient id="_rgradient_0" fx="3.9098888772360207" fy="12.12323235088776" cx="4.409886597327036" cy="12.623138806371978" r="219.307" gradientTransform="matrix(500.162,0,0,499.797,-0.162,0.203)" gradientUnits="userSpaceOnUse"><stop offset="0%" stop-opacity="1" style="stop-color:rgb(255,241,1)"/><stop offset="100%" stop-opacity="1" style="stop-color:rgb(230,218,26)"/></radialGradient><path d=" M 249.913 0.203 C 388.041 0.203 500 112.089 500 250.153 C 500 388.166 387.991 500 249.913 500 C 111.774 500 -0.162 388.146 -0.162 250.153 C -0.162 112.151 111.818 0.203 249.913 0.203 L 249.913 0.203 Z " fill-rule="evenodd" fill="url(#_rgradient_0)"/><path d=" M 495.639 296.546 C 468.025 316.832 439.686 339.399 414.98 362.559 C 358.88 415.224 326.607 456.442 290.721 496.629 C 394.269 479.673 476.331 399.191 495.639 296.546 Z " fill-rule="evenodd" fill="rgb(136,160,62)"/><linearGradient id="_lgradient_0" x1="0.006841015425296193" y1="0.7432046298054681" x2="0.8460624055196957" y2="-0.19188811605008949" gradientTransform="matrix(234.9,0,0,332.819,0.046,15.262)" gradientUnits="userSpaceOnUse"><stop offset="0%" stop-opacity="1" style="stop-color:rgb(207,220,94)"/><stop offset="100%" stop-opacity="1" style="stop-color:rgb(191,202,101)"/></linearGradient><path d=" M 163.753 78.041 L 0.046 261.271 C 1.396 291.971 8.267 321.218 19.728 348.081 C 91.461 237.128 163.192 126.184 234.945 15.262 C 211.213 36.212 187.474 57.162 163.753 78.009" fill-rule="evenodd" fill="url(#_lgradient_0)"/><path d=" M 1.498 221.175 C 0.42 230.676 -0.203 240.312 -0.203 250.112 C -0.203 253.845 -0.098 257.558 0.077 261.271 L 163.782 78.041 C 109.699 125.748 55.616 173.477 1.51 221.166" fill-rule="evenodd" fill="rgb(136,160,62)"/><linearGradient id="_lgradient_1" x1="0.006841103710751639" y1="0.7432012774514706" x2="0.9944909609895343" y2="-0.024668306690204922" gradientTransform="matrix(218.206,0,0,215.726,1.957,2.027)" gradientUnits="userSpaceOnUse"><stop offset="0%" stop-opacity="1" style="stop-color:rgb(207,220,94)"/><stop offset="100%" stop-opacity="1" style="stop-color:rgb(191,202,101)"/></linearGradient><path d=" M 1.957 217.754 C 74.725 145.838 147.391 73.934 220.162 2.027 C 106.7 15.481 16.594 104.757 1.957 217.754 L 1.957 217.754 Z " fill-rule="evenodd" fill="url(#_lgradient_1)"/><linearGradient id="_lgradient_2" x1="0.3203395974711444" y1="0.9089681253376551" x2="0.7005050619024742" y2="-0.044979343522373316" gradientTransform="matrix(357.952,0,0,499.133,1.396,0.244)" gradientUnits="userSpaceOnUse"><stop offset="0%" stop-opacity="1" style="stop-color:rgb(217,25,99)"/><stop offset="100%" stop-opacity="1" style="stop-color:rgb(152,18,69)"/></linearGradient><path d=" M 219.663 2.027 C 146.894 73.943 74.436 145.838 1.708 217.754 C 1.562 218.894 1.53 220.035 1.396 221.175 C 55.479 173.468 109.637 125.759 163.721 78.051 C 187.442 57.1 211.224 36.15 234.934 15.303 C 163.203 126.216 91.47 237.149 19.739 348.123 L 19.791 348.184 C 21.814 352.955 24.047 357.621 26.371 362.226 C 26.859 363.202 27.359 364.155 27.856 365.111 C 30.12 369.488 32.485 373.803 35.019 378.013 L 35.414 378.738 C 38.164 383.281 41.061 387.731 44.071 392.087 L 45.556 394.16 C 48.224 397.936 51.007 401.629 53.86 405.257 C 54.348 405.848 54.795 406.441 55.271 407.02 C 58.656 411.201 62.145 415.288 65.758 419.208 L 66.016 419.466 C 69.505 423.252 73.138 426.935 76.844 430.461 L 78.545 432.069 C 86.363 439.433 94.635 446.277 103.357 452.604 L 104.602 453.484 C 108.942 456.597 113.364 459.553 117.889 462.353 L 118.026 462.456 C 127.543 468.367 137.489 473.656 147.818 478.272 L 148.493 478.585 C 158.811 483.148 169.461 487.037 180.486 490.2 L 180.942 490.355 C 197.616 495.074 214.992 498.185 232.952 499.377 C 233.636 355.724 283.154 176.319 359.348 25.374 C 326.297 9.289 288.687 0.244 249.446 0.244 C 243.477 0.244 224.906 1.177 219.695 2.071" fill-rule="evenodd" fill="url(#_lgradient_2)"/></g></g></svg>