<?xml version="1.0" encoding="UTF-8" standalone="no"?><!-- Generator: Gravit.io --><svg xmlns="http://www.w3.org/2000/svg" xmlns:xlink="http://www.w3.org/1999/xlink" style="isolation:isolate" viewBox="0 0 500 500" width="500pt" height="500pt"><defs><clipPath id="_clipPath_nj28MgdzAOi4AUio7tjNL9oQPleG5X3P"><rect width="500" height="500"/></clipPath></defs><g clip-path="url(#_clipPath_nj28MgdzAOi4AUio7tjNL9oQPleG5X3P)"><clipPath id="_clipPath_R7n5k0oZ77OuClVvS12JS0wug8VrePZ8"><rect x="0" y="0" width="500" height="500" transform="matrix(1,0,0,1,0,0)" fill="rgb(255,255,255)"/></clipPath><g clip-path="url(#_clipPath_R7n5k0oZ77OuClVvS12JS0wug8VrePZ8)"><g><linearGradient id="_lgradient_2" x1="0.03360693257474452" y1="0.03478771114479437" x2="0.9747944263240564" y2="0.7154683932823169" gradientTransform="matrix(475.994,0,0,382.622,12.003,58.689)" gradientUnits="userSpaceOnUse"><stop offset="0%" stop-opacity="1" style="stop-color:rgb(255,238,0)"/><stop offset="97.82608695652173%" stop-opacity="1" style="stop-color:rgb(0,255,195)"/></linearGradient><path d=" M 309.471 375.562 L 309.471 375.562 L 309.471 375.562 Q 309.699 326.935 343.715 248.174 L 343.715 248.174 L 343.715 248.174 Q 320.885 242.01 299.312 234.476 L 299.312 234.476 L 299.312 234.476 Q 277.738 226.942 256.506 220.55 L 256.506 220.55 L 256.506 220.55 Q 209.934 351.363 149.665 407.523 L 149.665 407.523 L 149.665 407.523 Q 113.366 441.311 76.154 441.311 L 76.154 441.311 L 76.154 441.311 Q 27.984 441.311 15.884 392.456 L 15.884 392.456 L 15.884 392.456 Q 12.003 377.616 12.003 359.01 L 12.003 359.01 L 12.003 359.01 Q 12.003 340.405 17.368 319.63 L 17.368 319.63 L 17.368 319.63 Q 22.733 298.855 32.892 279.108 L 32.892 279.108 L 32.892 279.108 Q 43.051 259.36 57.776 241.553 L 57.776 241.553 L 57.776 241.553 Q 72.501 223.746 91.221 210.277 L 91.221 210.277 L 91.221 210.277 Q 132.314 181.283 181.398 181.283 L 181.398 181.283 L 181.398 181.283 Q 203.086 181.283 231.622 187.676 L 231.622 187.676 L 231.622 187.676 Q 265.866 111.882 270.432 60.744 L 270.432 60.744 L 270.432 60.744 Q 284.13 60.744 290.751 67.136 L 290.751 67.136 L 290.751 67.136 Q 296.001 72.159 284.358 124.438 L 284.358 124.438 L 284.358 124.438 Q 277.509 155.943 264.725 196.123 L 264.725 196.123 L 264.725 196.123 Q 332.3 214.614 356.956 219.18 L 356.956 219.18 L 356.956 219.18 Q 391.2 147.952 430.923 90.194 L 430.923 90.194 L 430.923 90.194 Q 442.338 73.529 451.47 62.114 L 451.47 62.114 L 451.47 62.114 Q 454.437 58.689 458.204 58.689 L 458.204 58.689 L 458.204 58.689 Q 461.971 58.689 465.396 60.059 L 465.396 60.059 L 465.396 60.059 Q 471.331 62.114 478.18 67.593 L 478.18 67.593 L 478.18 67.593 Q 453.753 98.184 420.878 178.772 L 420.878 178.772 L 420.878 178.772 Q 411.062 202.287 403.3 224.888 L 403.3 224.888 L 403.3 224.888 Q 411.975 225.344 420.65 225.344 L 420.65 225.344 L 420.65 225.344 Q 429.325 225.344 438.229 224.659 L 438.229 224.659 L 438.229 224.659 Q 436.859 243.151 428.64 253.653 L 428.64 253.653 L 428.64 253.653 Q 424.303 258.903 414.372 258.903 L 414.372 258.903 L 414.372 258.903 Q 404.441 258.903 392.798 257.534 L 392.798 257.534 L 392.798 257.534 Q 383.21 290.636 383.21 303.078 L 383.21 303.078 L 383.21 303.078 Q 383.21 315.52 384.009 322.94 L 384.009 322.94 L 384.009 322.94 Q 384.808 330.36 387.547 336.295 L 387.547 336.295 L 387.547 336.295 Q 393.255 349.308 407.409 349.308 L 407.409 349.308 L 407.409 349.308 Q 433.206 349.308 461.515 319.401 L 461.515 319.401 L 461.515 319.401 Q 470.418 310.27 477.723 299.312 L 477.723 299.312 L 477.723 299.312 Q 487.997 298.627 487.997 307.758 L 487.997 307.758 L 487.997 307.758 Q 487.997 317.118 476.696 334.925 L 476.696 334.925 L 476.696 334.925 Q 465.396 352.732 455.122 365.517 L 455.122 365.517 L 455.122 365.517 Q 444.849 378.301 432.978 390.173 L 432.978 390.173 L 432.978 390.173 Q 421.107 402.044 408.779 411.176 L 408.779 411.176 L 408.779 411.176 Q 381.84 431.494 362.435 431.494 L 362.435 431.494 L 362.435 431.494 Q 309.471 431.494 309.471 375.562 Z  M 73.186 300.681 L 73.186 300.681 L 73.186 300.681 Q 73.186 346.112 103.549 346.112 L 103.549 346.112 L 103.549 346.112 Q 135.054 346.112 181.626 278.308 L 181.626 278.308 L 181.626 278.308 Q 202.401 247.945 220.436 211.418 L 220.436 211.418 L 220.436 211.418 Q 203.086 207.766 179.914 207.766 L 179.914 207.766 L 179.914 207.766 Q 156.742 207.766 135.51 216.327 L 135.51 216.327 L 135.51 216.327 Q 114.279 224.888 100.353 238.129 L 100.353 238.129 L 100.353 238.129 Q 73.186 264.383 73.186 300.681 Z " fill="url(#_lgradient_2)"/></g></g></g></svg>