<?xml version="1.0" encoding="UTF-8" standalone="no"?><!-- Generator: Gravit.io --><svg xmlns="http://www.w3.org/2000/svg" xmlns:xlink="http://www.w3.org/1999/xlink" style="isolation:isolate" viewBox="0 0 512 512" width="512pt" height="512pt"><defs><clipPath id="_clipPath_RioLdaXMSW3ZihbccBOExnHmq5xRrICA"><rect width="512" height="512"/></clipPath></defs><g clip-path="url(#_clipPath_RioLdaXMSW3ZihbccBOExnHmq5xRrICA)"><g><g><path d=" M 481.728 0 L 440.599 460.746 L 255.724 512 L 71.357 460.819 L 30.272 0 L 481.728 0 Z " fill="rgb(228,77,38)"/><path d=" M 256 472.824 L 405.388 431.408 L 440.536 37.679 L 256 37.679 L 256 472.824 Z " fill="rgb(241,101,41)"/><path d=" M 176.047 150.715 L 256 150.715 L 256 94.197 L 255.805 94.197 L 114.281 94.197 L 115.634 109.36 L 129.525 265.107 L 256 265.107 L 256 208.59 L 181.213 208.59 L 176.047 150.715 Z " fill="rgb(235,235,235)"/><path d=" M 188.785 293.366 L 158.199 293.366 L 132.05 293.366 L 139.968 382.107 L 255.74 414.246 L 256 414.174 L 256 355.372 L 255.752 355.438 L 192.808 338.442 L 188.785 293.366 Z " fill="rgb(235,235,235)"/><path d=" M 255.805 265.107 L 325.4 265.107 L 318.839 338.406 L 255.805 355.419 L 255.805 414.219 L 371.669 382.107 L 372.519 372.558 L 385.8 223.766 L 387.179 208.59 L 371.949 208.59 L 255.805 208.59 L 255.805 265.107 Z " fill="rgb(255,255,255)"/><path d=" M 255.805 150.577 L 255.805 150.715 L 392.14 150.715 L 392.14 150.715 L 392.321 150.715 L 393.455 138.011 L 396.03 109.36 L 397.382 94.197 L 255.805 94.197 L 255.805 129.299 L 255.805 150.577 Z " fill="rgb(255,255,255)"/></g></g></g></svg>