<?xml version="1.0" encoding="UTF-8" standalone="no"?><!-- Generator: Gravit.io --><svg xmlns="http://www.w3.org/2000/svg" xmlns:xlink="http://www.w3.org/1999/xlink" style="isolation:isolate" viewBox="0 0 500 500" width="500pt" height="500pt"><defs><clipPath id="_clipPath_Q9SVcATDClKxRJsemkybaAGhWWVBe1W0"><rect width="500" height="500"/></clipPath></defs><g clip-path="url(#_clipPath_Q9SVcATDClKxRJsemkybaAGhWWVBe1W0)"><rect width="500" height="500" style="fill:rgb(38,38,38)" fill-opacity="0"/><linearGradient id="_lgradient_0" x1="0.8502231587768069" y1="0.04799999999999996" x2="0.24812509348987033" y2="1.0113318584070796" gradientTransform="matrix(421.16,0,0,500,39.42,0)" gradientUnits="userSpaceOnUse"><stop offset="0%" stop-opacity="1" style="stop-color:rgb(0,244,73)"/><stop offset="98.26086956521739%" stop-opacity="1" style="stop-color:rgb(153,0,255)"/></linearGradient><path d=" M 451.753 389.652 C 444.192 407.12 435.241 423.2 424.871 437.984 C 410.736 458.137 399.162 472.088 390.243 479.834 C 376.416 492.55 361.602 499.062 345.738 499.432 C 334.349 499.432 320.615 496.192 304.628 489.618 C 288.588 483.075 273.848 479.834 260.37 479.834 C 246.235 479.834 231.075 483.075 214.859 489.618 C 198.619 496.192 185.536 499.618 175.533 499.957 C 160.321 500.605 145.158 493.908 130.022 479.834 C 120.362 471.409 108.279 456.965 93.804 436.502 C 78.274 414.651 65.506 389.312 55.503 360.424 C 44.79 329.222 39.42 299.006 39.42 269.754 C 39.42 236.246 46.661 207.346 61.163 183.127 C 72.561 163.674 87.724 148.329 106.702 137.064 C 125.68 125.799 146.185 120.058 168.268 119.691 C 180.351 119.691 196.196 123.428 215.887 130.774 C 235.522 138.144 248.13 141.882 253.657 141.882 C 257.79 141.882 271.796 137.511 295.539 128.799 C 317.992 120.719 336.942 117.373 352.466 118.691 C 394.533 122.086 426.137 138.669 447.155 168.544 C 409.532 191.34 390.922 223.268 391.292 264.227 C 391.632 296.13 403.205 322.679 425.951 343.758 C 436.26 353.542 447.772 361.103 460.58 366.474 C 457.802 374.529 454.87 382.245 451.753 389.652 L 451.753 389.652 Z  M 355.275 10.003 C 355.275 35.009 346.139 58.356 327.93 79.967 C 305.955 105.657 279.376 120.503 250.552 118.16 C 250.185 115.16 249.972 112.003 249.972 108.685 C 249.972 84.68 260.423 58.989 278.981 37.983 C 288.246 27.348 300.029 18.505 314.319 11.45 C 328.578 4.501 342.065 0.658 354.75 0 C 355.12 3.343 355.275 6.686 355.275 10.003 L 355.275 10.003 Z " fill="url(#_lgradient_0)"/></g></svg>