<?xml version="1.0" encoding="UTF-8" standalone="no"?><!-- Generator: Gravit.io --><svg xmlns="http://www.w3.org/2000/svg" xmlns:xlink="http://www.w3.org/1999/xlink" style="isolation:isolate" viewBox="0 0 1000 1000" width="1000pt" height="1000pt"><defs><clipPath id="_clipPath_9sp19GAyReeztGt1XDnMpF5s0QskSNSA"><rect width="1000" height="1000"/></clipPath></defs><g clip-path="url(#_clipPath_9sp19GAyReeztGt1XDnMpF5s0QskSNSA)"><rect width="1000" height="1000" style="fill:rgb(28,28,28)" fill-opacity="0"/><linearGradient id="_lgradient_0" x1="0.582036582036582" y1="0.01335877862595411" x2="0.5786240786240783" y2="0.9988619627794885" gradientTransform="matrix(492.654,0,0,1162.84,250.344,-80.618)" gradientUnits="userSpaceOnUse"><stop offset="0%" stop-opacity="1" style="stop-color:rgb(0,187,255)"/><stop offset="100%" stop-opacity="1" style="stop-color:rgb(0,255,195)"/></linearGradient><path d=" M 586.682 918.257 L 586.682 918.257 C 672.955 802.988 659.847 613.857 557.429 496.172 L 557.04 495.724 C 462.482 387.071 430.113 206.962 484.8 93.772 L 484.8 93.772 C 531.303 -2.476 505.105 -4.474 426.335 89.315 L 423.689 92.465 C 328.017 206.377 330.46 389.232 429.14 500.548 L 430.217 501.763 C 531.808 616.363 576.861 802.224 530.763 916.553 L 530.763 916.553 C 493.896 1007.988 518.952 1008.752 586.682 918.257 Z " fill="url(#_lgradient_0)"/><linearGradient id="_lgradient_1" x1="0.582036582036582" y1="0.01335877862595411" x2="0.5786240786240783" y2="0.9988619627794885" gradientTransform="matrix(384.635,0,0,907.877,498.887,-4.465)" gradientUnits="userSpaceOnUse"><stop offset="0%" stop-opacity="1" style="stop-color:rgb(0,187,255)"/><stop offset="100%" stop-opacity="1" style="stop-color:rgb(0,255,195)"/></linearGradient><path d=" M 761.48 775.398 L 761.48 775.398 C 828.837 685.402 818.603 537.74 738.641 445.858 L 738.337 445.509 C 664.512 360.679 639.24 220.06 681.937 131.688 L 681.937 131.688 C 718.243 56.543 697.789 54.984 636.29 128.208 L 634.224 130.668 C 559.53 219.603 561.437 362.366 638.48 449.275 L 639.321 450.224 C 718.637 539.696 753.812 684.806 717.821 774.067 L 717.821 774.067 C 689.038 845.454 708.601 846.051 761.48 775.398 Z " fill="url(#_lgradient_1)"/><linearGradient id="_lgradient_2" x1="0.582036582036582" y1="0.01335877862595411" x2="0.5786240786240783" y2="0.9988619627794885" gradientTransform="matrix(384.635,0,0,907.877,115.46,111.535)" gradientUnits="userSpaceOnUse"><stop offset="0%" stop-opacity="1" style="stop-color:rgb(0,187,255)"/><stop offset="100%" stop-opacity="1" style="stop-color:rgb(0,255,195)"/></linearGradient><path d=" M 378.053 891.398 L 378.053 891.398 C 445.41 801.402 435.176 653.74 355.214 561.858 L 354.91 561.509 C 281.085 476.679 255.813 336.06 298.509 247.688 L 298.509 247.688 C 334.816 172.543 314.362 170.984 252.863 244.208 L 250.797 246.668 C 176.103 335.603 178.01 478.366 255.053 565.275 L 255.894 566.224 C 335.21 655.696 370.385 800.806 334.394 890.067 L 334.394 890.067 C 305.611 961.454 325.174 962.051 378.053 891.398 Z " fill="url(#_lgradient_2)"/></g></svg>