<?xml version="1.0" encoding="UTF-8" standalone="no"?><!-- Generator: Gravit.io --><svg xmlns="http://www.w3.org/2000/svg" xmlns:xlink="http://www.w3.org/1999/xlink" style="isolation:isolate" viewBox="0 0 511.998 511.998" width="511.998pt" height="511.998pt"><defs><clipPath id="_clipPath_ZfNL3UFtX36m9MuT3SBCMiTS4v7cVwBE"><rect width="511.998" height="511.998"/></clipPath></defs><g clip-path="url(#_clipPath_ZfNL3UFtX36m9MuT3SBCMiTS4v7cVwBE)"><g><path d=" M 253.464 94.869 C 229.806 111.508 202.993 130.367 188.626 161.568 C 163.672 216.003 239.688 275.38 242.937 277.881 C 243.692 278.462 244.596 278.752 245.497 278.752 C 246.454 278.752 247.412 278.425 248.19 277.773 C 249.699 276.511 250.127 274.367 249.221 272.621 C 248.946 272.091 221.66 219.091 222.674 181.069 C 223.033 167.826 241.566 152.803 261.186 136.898 C 279.156 122.33 299.526 105.819 311.444 86.504 C 337.608 43.988 308.528 2.182 308.231 1.764 C 307.076 0.142 304.944 -0.445 303.121 0.354 C 301.3 1.158 300.291 3.127 300.707 5.074 C 300.766 5.351 306.421 32.997 290.685 61.48 C 284.203 73.25 269.959 83.268 253.464 94.869 Z " fill="rgb(219,130,14)"/><path d=" M 353.137 113.617 C 354.806 112.36 355.296 110.067 354.287 108.237 C 353.276 106.407 351.076 105.6 349.122 106.342 C 345.103 107.87 250.706 144.257 250.706 188.222 C 250.706 218.529 263.652 234.539 273.105 246.231 C 276.813 250.817 280.014 254.777 281.069 258.158 C 284.039 267.901 277.003 285.511 274.044 291.475 C 273.191 293.189 273.609 295.267 275.06 296.519 C 275.844 297.196 276.823 297.54 277.803 297.54 C 278.637 297.54 279.475 297.292 280.199 296.788 C 281.822 295.66 319.866 268.762 313.043 236.355 C 310.501 224.037 304.448 215.037 299.107 207.095 C 290.833 194.79 284.857 185.902 293.923 169.486 C 304.545 150.338 352.65 113.981 353.137 113.617 Z " fill="rgb(219,130,14)"/></g><g><path d=" M 107.418 298.236 C 105.8 303.081 106.564 307.887 109.625 312.139 C 119.858 326.346 156.105 334.168 211.693 334.168 C 211.696 334.168 211.698 334.168 211.7 334.168 C 219.232 334.168 227.184 334.02 235.329 333.728 C 324.204 330.547 357.168 302.859 358.528 301.682 C 360.01 300.399 360.406 298.263 359.485 296.535 C 358.563 294.808 356.576 293.94 354.677 294.463 C 323.376 303.009 264.929 306.043 224.389 306.043 C 179.026 306.043 155.924 302.775 150.268 300.362 C 153.17 296.377 171.07 289.261 193.251 284.898 C 195.371 284.482 196.828 282.524 196.618 280.374 C 196.408 278.224 194.602 276.584 192.441 276.584 C 179.439 276.584 114.234 277.628 107.418 298.236 Z " fill="rgb(115,161,251)"/><path d=" M 404.812 269.718 C 386.481 269.718 369.098 278.906 368.366 279.295 C 366.671 280.203 365.811 282.147 366.276 284.015 C 366.743 285.88 368.42 287.191 370.343 287.193 C 370.732 287.193 409.445 287.51 412.951 309.629 C 416.057 328.711 376.322 359.629 360.749 369.933 C 359.067 371.046 358.414 373.196 359.195 375.056 C 359.86 376.639 361.401 377.629 363.063 377.629 C 363.353 377.629 363.647 377.599 363.939 377.537 C 367.635 376.746 454.345 357.638 445.177 307.153 C 439.584 276.213 420.138 269.718 404.812 269.718 Z " fill="rgb(115,161,251)"/><path d=" M 345.347 363.755 C 345.649 362.138 344.976 360.493 343.63 359.548 L 322.839 344.985 C 321.825 344.275 320.544 344.052 319.354 344.367 C 319.137 344.422 297.395 350.138 265.829 353.643 C 253.301 355.048 239.269 355.79 225.247 355.79 C 193.689 355.79 173.055 352.082 170.05 349.362 C 169.652 348.598 169.778 348.251 169.849 348.058 C 170.395 346.54 173.321 344.736 175.207 344.022 C 177.29 343.251 178.413 340.989 177.765 338.865 C 177.119 336.738 174.928 335.487 172.766 336.006 C 151.91 341.039 141.712 348.077 142.454 356.924 C 143.772 372.61 180.104 380.661 210.819 382.789 C 215.236 383.091 220.013 383.244 225.014 383.244 C 225.017 383.244 225.019 383.244 225.022 383.244 C 276.096 383.244 341.572 367.219 342.226 367.056 C 343.825 366.666 345.044 365.375 345.347 363.755 Z " fill="rgb(115,161,251)"/><path d=" M 188.602 397.419 C 190.177 396.395 190.875 394.448 190.316 392.655 C 189.759 390.862 188.082 389.684 186.198 389.709 C 183.403 389.783 158.849 390.891 157.13 406.524 C 156.61 411.196 157.948 415.465 161.109 419.21 C 169.925 429.658 193.723 435.868 233.85 438.194 C 238.597 438.479 243.419 438.622 248.184 438.622 C 299.199 438.622 333.557 422.649 334.996 421.969 C 336.391 421.309 337.311 419.938 337.393 418.398 C 337.475 416.858 336.706 415.397 335.39 414.592 L 309.115 398.552 C 308.203 397.996 307.112 397.812 306.072 398.025 C 305.906 398.06 289.223 401.52 264.046 404.938 C 259.282 405.586 253.316 405.915 246.316 405.915 C 221.166 405.915 193.192 401.806 187.827 399.115 C 187.749 398.613 187.848 397.975 188.602 397.419 Z " fill="rgb(115,161,251)"/><path d=" M 224.408 486.85 C 341.262 486.751 403.979 465.97 416.061 452.893 C 420.338 448.267 420.8 443.887 420.437 441.026 C 419.539 433.986 413.126 429.676 412.399 429.208 C 410.645 428.08 408.291 428.375 406.923 429.953 C 405.558 431.531 405.526 433.837 406.896 435.414 C 407.633 436.362 408.059 437.949 405.904 440.106 C 401.074 444.617 352.359 458.31 271.248 462.424 C 260.137 463.001 248.483 463.295 236.612 463.297 C 163.989 463.297 110.84 453.349 103.863 447.553 C 106.552 443.689 125.352 437.516 145.345 434.024 C 147.598 433.631 149.12 431.508 148.771 429.248 C 148.422 426.989 146.339 425.434 144.062 425.729 C 143.498 425.806 141.584 425.92 139.368 426.056 C 106.38 428.07 68.259 432.559 66.27 449.556 C 65.666 454.735 67.205 459.437 70.846 463.529 C 79.755 473.539 105.362 486.848 224.404 486.848 C 224.406 486.85 224.406 486.85 224.408 486.85 Z " fill="rgb(115,161,251)"/><path d=" M 439.013 456.578 C 437.361 455.814 435.409 456.2 434.177 457.53 C 434.006 457.715 416.437 476.086 363.613 486.874 C 343.39 490.926 305.43 492.981 250.787 492.981 C 196.042 492.981 143.949 490.827 143.43 490.805 C 141.254 490.699 139.393 492.281 139.097 494.423 C 138.8 496.563 140.18 498.581 142.281 499.081 C 142.823 499.209 197.416 511.999 272.06 511.999 C 307.861 511.999 342.699 509.092 375.608 503.354 C 436.969 492.597 441.265 462.171 441.418 460.881 C 441.632 459.078 440.662 457.342 439.013 456.578 Z " fill="rgb(115,161,251)"/></g></g></svg>