<?xml version="1.0" encoding="UTF-8" standalone="no"?><!-- Generator: Gravit.io --><svg xmlns="http://www.w3.org/2000/svg" xmlns:xlink="http://www.w3.org/1999/xlink" style="isolation:isolate" viewBox="0 0 500 500" width="500pt" height="500pt"><defs><clipPath id="_clipPath_wh6hPyEHfwLTw0Hg8K2HlmCih1JoXuFq"><rect width="500" height="500"/></clipPath></defs><g clip-path="url(#_clipPath_wh6hPyEHfwLTw0Hg8K2HlmCih1JoXuFq)"><g><path d=" M 495.3 250.05 C 495.3 217.55 454.6 186.75 392.2 167.65 C 406.6 104.05 400.2 53.45 372 37.25 C 365.5 33.45 357.9 31.65 349.6 31.65 L 349.6 53.95 C 354.2 53.95 357.9 54.85 361 56.55 C 374.6 64.35 380.5 94.05 375.9 132.25 C 374.8 141.65 373 151.55 370.8 161.65 C 351.2 156.85 329.8 153.15 307.3 150.75 C 293.8 132.25 279.8 115.45 265.7 100.75 C 298.3 70.45 328.9 53.85 349.7 53.85 L 349.7 31.55 C 349.7 31.55 349.7 31.55 349.7 31.55 C 322.2 31.55 286.2 51.15 249.8 85.15 C 213.4 51.35 177.4 31.95 149.9 31.95 L 149.9 54.25 C 170.6 54.25 201.3 70.75 233.9 100.85 C 219.9 115.55 205.9 132.25 192.6 150.75 C 170 153.15 148.6 156.85 129 161.75 C 126.7 151.75 125 142.05 123.8 132.75 C 119.1 94.55 124.9 64.85 138.4 56.95 C 141.4 55.15 145.3 54.35 149.9 54.35 L 149.9 32.05 C 149.9 32.05 149.9 32.05 149.9 32.05 C 141.5 32.05 133.9 33.85 127.3 37.65 C 99.2 53.85 92.9 104.35 107.4 167.75 C 45.2 186.95 4.7 217.65 4.7 250.05 C 4.7 282.55 45.4 313.35 107.8 332.45 C 93.4 396.05 99.8 446.65 128 462.85 C 134.5 466.65 142.1 468.45 150.5 468.45 C 178 468.45 214 448.85 250.4 414.85 C 286.8 448.65 322.8 468.05 350.3 468.05 C 358.7 468.05 366.3 466.25 372.9 462.45 C 401 446.25 407.3 395.75 392.8 332.35 C 454.8 313.25 495.3 282.45 495.3 250.05 Z  M 365.1 183.35 C 361.4 196.25 356.8 209.55 351.6 222.85 C 347.5 214.85 343.2 206.85 338.5 198.85 C 333.9 190.85 329 183.05 324.1 175.45 C 338.3 177.55 352 180.15 365.1 183.35 Z  M 319.3 289.85 C 311.5 303.35 303.5 316.15 295.2 328.05 C 280.3 329.35 265.2 330.05 250 330.05 C 234.9 330.05 219.8 329.35 205 328.15 C 196.7 316.25 188.6 303.55 180.8 290.15 C 173.2 277.05 166.3 263.75 160 250.35 C 166.2 236.95 173.2 223.55 180.7 210.45 C 188.5 196.95 196.5 184.15 204.8 172.25 C 219.7 170.95 234.8 170.25 250 170.25 C 265.1 170.25 280.2 170.95 295 172.15 C 303.3 184.05 311.4 196.75 319.2 210.15 C 326.8 223.25 333.7 236.55 340 249.95 C 333.7 263.35 326.8 276.75 319.3 289.85 Z  M 351.6 276.85 C 357 290.25 361.6 303.65 365.4 316.65 C 352.3 319.85 338.5 322.55 324.2 324.65 C 329.1 316.95 334 309.05 338.6 300.95 C 343.2 292.95 347.5 284.85 351.6 276.85 Z  M 250.2 383.55 C 240.9 373.95 231.6 363.25 222.4 351.55 C 231.4 351.95 240.6 352.25 249.9 352.25 C 259.3 352.25 268.6 352.05 277.7 351.55 C 268.7 363.25 259.4 373.95 250.2 383.55 Z  M 175.8 324.65 C 161.6 322.55 147.9 319.95 134.8 316.75 C 138.5 303.85 143.1 290.55 148.3 277.25 C 152.4 285.25 156.7 293.25 161.4 301.25 C 166.1 309.25 170.9 317.05 175.8 324.65 Z  M 249.7 116.55 C 259 126.15 268.3 136.85 277.5 148.55 C 268.5 148.15 259.3 147.85 250 147.85 C 240.6 147.85 231.3 148.05 222.2 148.55 C 231.2 136.85 240.5 126.15 249.7 116.55 Z  M 175.7 175.45 C 170.8 183.15 165.9 191.05 161.3 199.15 C 156.7 207.15 152.4 215.15 148.3 223.15 C 142.9 209.75 138.3 196.35 134.5 183.35 C 147.6 180.25 161.4 177.55 175.7 175.45 Z  M 85.2 300.65 C 49.8 285.55 26.9 265.75 26.9 250.05 C 26.9 234.35 49.8 214.45 85.2 199.45 C 93.8 195.75 103.2 192.45 112.9 189.35 C 118.6 208.95 126.1 229.35 135.4 250.25 C 126.2 271.05 118.8 291.35 113.2 310.85 C 103.3 307.75 93.9 304.35 85.2 300.65 Z  M 139 443.55 C 125.4 435.75 119.5 406.05 124.1 367.85 C 125.2 358.45 127 348.55 129.2 338.45 C 148.8 343.25 170.2 346.95 192.7 349.35 C 206.2 367.85 220.2 384.65 234.3 399.35 C 201.7 429.65 171.1 446.25 150.3 446.25 C 145.8 446.15 142 445.25 139 443.55 Z  M 376.2 367.35 C 380.9 405.55 375.1 435.25 361.6 443.15 C 358.6 444.95 354.7 445.75 350.1 445.75 C 329.4 445.75 298.7 429.25 266.1 399.15 C 280.1 384.45 294.1 367.75 307.4 349.25 C 330 346.85 351.4 343.15 371 338.25 C 373.3 348.35 375.1 358.05 376.2 367.35 Z  M 414.7 300.65 C 406.1 304.35 396.7 307.65 387 310.75 C 381.3 291.15 373.8 270.75 364.5 249.85 C 373.7 229.05 381.1 208.75 386.7 189.25 C 396.6 192.35 406 195.75 414.8 199.45 C 450.2 214.55 473.1 234.35 473.1 250.05 C 473 265.75 450.1 285.65 414.7 300.65 Z " fill="rgb(97,218,251)"/><path d=" M 149.8 31.95 L 149.8 31.95 L 149.8 31.95 L 149.8 31.95 Z " fill="rgb(97,218,251)"/><circle vector-effect="non-scaling-stroke" cx="249.89999999999998" cy="250.04999999999995" r="45.69999999999999" fill="rgb(97,218,251)"/><path d=" M 349.5 31.65 L 349.5 31.65 L 349.5 31.65 L 349.5 31.65 Z " fill="rgb(97,218,251)"/></g></g></svg>