<?xml version="1.0" encoding="UTF-8" standalone="no"?><!-- Generator: Gravit.io --><svg xmlns="http://www.w3.org/2000/svg" xmlns:xlink="http://www.w3.org/1999/xlink" style="isolation:isolate" viewBox="0 0 1000 1000" width="1000pt" height="1000pt"><defs><clipPath id="_clipPath_brlSvmg6jhzXvar3H3VOwlmxchQIXi8i"><rect width="1000" height="1000"/></clipPath></defs><g clip-path="url(#_clipPath_brlSvmg6jhzXvar3H3VOwlmxchQIXi8i)"><g><path d="M 89.543 227.899 L 910.457 227.899 C 935.911 227.899 956.576 248.564 956.576 274.018 L 956.576 725.982 C 956.576 751.436 935.911 772.101 910.457 772.101 L 89.543 772.101 C 64.089 772.101 43.424 751.436 43.424 725.982 L 43.424 274.018 C 43.424 248.564 64.089 227.899 89.543 227.899 Z" style="fill:none;stroke:#5481FF;stroke-width:50;stroke-miterlimit:2;"/><path d=" M 158.721 656.804 L 158.721 343.196 L 250.959 343.196 L 343.196 458.493 L 435.434 343.196 L 527.671 343.196 L 527.671 656.804 L 435.434 656.804 L 435.434 476.941 L 343.196 592.238 L 250.959 476.941 L 250.959 656.804 L 158.721 656.804 Z  M 735.206 656.804 L 596.849 504.612 L 689.087 504.612 L 689.087 343.196 L 781.324 343.196 L 781.324 504.612 L 873.562 504.612 L 735.206 656.804 Z " fill="rgb(84,129,255)"/></g></g></svg>