<?xml version="1.0" encoding="UTF-8" standalone="no"?><!-- Generator: Gravit.io --><svg xmlns="http://www.w3.org/2000/svg" xmlns:xlink="http://www.w3.org/1999/xlink" style="isolation:isolate" viewBox="0 0 1000 1000" width="1000pt" height="1000pt"><defs><clipPath id="_clipPath_hfhvja7L9uNKeLUaHTHstk0Iiz0svs82"><rect width="1000" height="1000"/></clipPath></defs><g clip-path="url(#_clipPath_hfhvja7L9uNKeLUaHTHstk0Iiz0svs82)"><rect width="1000" height="1000" style="fill:rgb(0,0,0)" fill-opacity="0"/><path d=" M 849.8 138.3 C 845.1 86.3 835.5 27.9 812 14.3 C 788.6 0.8 732.5 21.3 685.2 43.2 C 591.8 86.6 516.4 149.2 448 240 C 360 356.9 323.7 443.3 309.9 484.3 L 206.2 499 L 148.5 803.6 C 144.9 822.4 154.5 828.5 169.9 817 L 301.7 719.2 L 456.1 808.3 L 437.3 971.4 C 435.1 990.5 445.1 995.8 459.6 983.2 L 694.6 780.9 L 655.4 683.7 C 684 651.2 740.7 576.6 797.9 442 C 842.5 337.4 858.9 240.9 849.8 138.3 Z  M 530.9 821.9 L 537.2 767.7 L 296.5 628.7 L 252.7 661.2 L 270.7 566.4 L 344.9 555.9 L 371.6 552.5 L 376.7 526.1 C 377.5 522.5 399.6 430.7 508.8 285.6 C 569.4 205 635.7 149.9 717.4 112 C 732.5 105 750.3 98 767 91.9 C 770.1 109.4 772.9 128.4 774.4 144.9 C 782.4 234.6 767.8 319.6 728.3 412.4 C 657.1 579.6 588.6 644.5 585.9 647 L 565.9 664.3 L 604 758.8 L 530.9 821.9 L 530.9 821.9 L 530.9 821.9 Z " fill="rgb(104,104,104)"/><path d=" M 400.5 826.2 C 400.5 826.2 388 876.8 360.9 894.7 C 333.8 912.6 318.6 913.2 289.8 918.5 C 279.9 890.9 272.8 877.5 274.8 845 C 276.8 812.6 314.4 776.5 314.4 776.5 C 314.4 776.5 285.4 763.7 247.1 796.2 C 185.4 874.6 254.3 980 254.3 980 C 254.3 980 380 987 417.1 894.4 C 426.1 844.8 400.5 826.2 400.5 826.2 Z " fill="rgb(200,102,17)"/></g></svg>