<?xml version="1.0" encoding="UTF-8" standalone="no"?><!-- Generator: Gravit.io --><svg xmlns="http://www.w3.org/2000/svg" xmlns:xlink="http://www.w3.org/1999/xlink" style="isolation:isolate" viewBox="0 0 500 500" width="500pt" height="500pt"><defs><clipPath id="_clipPath_6aV0dLhnSRXcF5Y0x2FFYTvdAr1FHI0s"><rect width="500" height="500"/></clipPath></defs><g clip-path="url(#_clipPath_6aV0dLhnSRXcF5Y0x2FFYTvdAr1FHI0s)"><clipPath id="_clipPath_HBdCMOG4ZegCIWakwbXUM7nQhcOEVH1i"><rect x="0" y="0" width="500" height="500" transform="matrix(1,0,0,1,0,0)" fill="rgb(255,255,255)"/></clipPath><g clip-path="url(#_clipPath_HBdCMOG4ZegCIWakwbXUM7nQhcOEVH1i)"><g><path d=" M 40 252 L 169 399 L 372 443 L 279 252 L 40 252 L 40 252 Z " fill="rgb(247,164,75)"/><path d=" M 40 252 L 169 105 L 372 62 L 279 252 L 40 252 L 40 252 Z " fill="rgb(255,160,96)"/><path d=" M 372 62 L 279 252 L 372 443 L 422 252 L 372 62 L 372 62 Z " fill="rgb(64,40,30)"/><path d=" M 333 142 L 219 156 L 152 252 L 208 252 L 242 195 L 310 189 L 333 142 L 333 142 Z " fill="rgb(145,100,83)"/><path d=" M 152 252 L 208 252 L 242 310 L 310 315 L 333 363 L 219 349 L 152 252 L 152 252 Z " fill="rgb(70,52,44)"/></g></g></g></svg>