<?xml version="1.0" encoding="UTF-8" standalone="no"?><!-- Generator: Gravit.io --><svg xmlns="http://www.w3.org/2000/svg" xmlns:xlink="http://www.w3.org/1999/xlink" style="isolation:isolate" viewBox="0 0 500 500" width="500pt" height="500pt"><defs><clipPath id="_clipPath_B0zCV1bl4XBZqdMWjbc8uvPKAJCmF1pi"><rect width="500" height="500"/></clipPath></defs><g clip-path="url(#_clipPath_B0zCV1bl4XBZqdMWjbc8uvPKAJCmF1pi)"><path d=" M 430.529 278.075 C 413.083 278.166 397.92 282.368 385.224 288.579 C 380.565 279.354 375.907 271.133 375.085 265.104 C 374.172 258.071 373.075 253.778 374.172 245.375 C 375.268 236.972 380.2 225.006 380.109 224.093 C 380.017 223.179 379.013 218.886 368.965 218.795 C 358.918 218.703 350.24 220.713 349.236 223.362 C 348.231 226.011 346.313 232.039 345.034 238.25 C 343.298 247.384 324.939 279.993 314.435 297.074 C 311.055 290.406 308.132 284.56 307.493 279.902 C 306.579 272.868 305.483 268.575 306.579 260.172 C 307.676 251.769 312.608 239.803 312.517 238.89 C 312.425 237.976 311.421 233.683 301.373 233.592 C 291.326 233.501 282.648 235.51 281.643 238.159 C 280.639 240.808 279.543 247.019 277.442 253.047 C 275.341 259.076 250.953 313.515 244.559 327.581 C 241.271 334.797 238.439 340.552 236.43 344.479 C 236.43 344.479 236.43 344.479 236.43 344.479 C 236.43 344.479 236.339 344.753 236.065 345.21 C 234.329 348.59 233.324 350.417 233.324 350.417 C 233.324 350.417 233.324 350.417 233.324 350.508 C 231.954 352.974 230.493 355.258 229.762 355.258 C 229.214 355.258 228.209 348.681 229.945 339.73 C 233.598 320.822 242.276 291.411 242.184 290.406 C 242.184 289.858 243.828 284.743 236.521 282.094 C 229.397 279.445 226.839 283.829 226.2 283.829 C 225.56 283.829 225.104 285.382 225.104 285.382 C 225.104 285.382 233.05 252.317 209.941 252.317 C 195.509 252.317 175.597 268.119 165.732 282.368 C 159.521 285.747 146.277 292.963 132.119 300.727 C 126.73 303.742 121.158 306.756 115.952 309.587 C 115.586 309.222 115.221 308.765 114.855 308.4 C 86.905 278.532 35.206 257.432 37.399 217.333 C 38.221 202.719 43.244 164.356 136.686 117.772 C 213.595 79.866 274.793 90.37 285.388 113.662 C 300.551 146.91 252.597 208.656 173.131 217.607 C 142.806 220.987 126.912 209.295 122.893 204.911 C 118.692 200.344 118.052 200.07 116.5 200.983 C 113.942 202.353 115.586 206.464 116.5 208.839 C 118.874 215.05 128.648 226.011 145.181 231.4 C 159.795 236.149 195.327 238.798 238.348 222.174 C 286.485 203.541 324.117 151.751 313.065 108.364 C 302.012 64.338 228.94 49.815 159.795 74.385 C 118.692 89 74.118 112.018 42.057 141.977 C 3.968 177.6 -2.061 208.565 0.406 221.535 C 9.266 267.571 72.747 297.53 98.14 319.726 C 96.861 320.457 95.674 321.096 94.669 321.644 C 81.973 327.947 33.562 353.248 21.505 380.011 C 7.804 410.336 23.698 432.075 34.202 434.998 C 66.81 444.041 100.332 427.782 118.326 400.928 C 136.321 374.074 134.128 339.182 125.816 323.197 C 125.725 323.014 125.634 322.832 125.451 322.649 C 128.739 320.731 132.119 318.721 135.407 316.803 C 141.892 312.967 148.286 309.405 153.767 306.482 C 150.661 314.976 148.377 325.115 147.281 339.73 C 145.911 356.902 152.945 379.189 162.17 387.958 C 166.28 391.794 171.121 391.885 174.227 391.885 C 185.005 391.885 189.846 382.934 195.235 372.338 C 201.812 359.368 207.749 344.297 207.749 344.297 C 207.749 344.297 200.35 385.035 220.445 385.035 C 227.753 385.035 235.151 375.535 238.439 370.694 C 238.439 370.786 238.439 370.786 238.439 370.786 C 238.439 370.786 238.622 370.512 238.987 369.872 C 239.718 368.685 240.175 367.954 240.175 367.954 C 240.175 367.954 240.175 367.863 240.175 367.771 C 243.098 362.656 249.674 351.056 259.448 331.783 C 272.053 306.938 284.201 275.883 284.201 275.883 C 284.201 275.883 285.297 283.464 289.042 296.069 C 291.234 303.468 295.801 311.597 299.455 319.452 C 296.532 323.562 294.705 325.846 294.705 325.846 C 294.705 325.846 294.705 325.846 294.797 325.937 C 292.422 329.043 289.864 332.423 287.033 335.711 C 277.076 347.585 265.202 361.195 263.558 365.122 C 261.64 369.781 262.097 373.16 265.75 375.901 C 268.399 377.91 273.149 378.184 277.99 377.91 C 286.941 377.271 293.244 375.079 296.349 373.708 C 301.19 371.973 306.854 369.324 312.151 365.396 C 321.925 358.181 327.862 347.859 327.314 334.249 C 327.04 326.759 324.574 319.269 321.559 312.236 C 322.473 310.957 323.295 309.679 324.208 308.4 C 339.645 285.839 351.61 261.085 351.61 261.085 C 351.61 261.085 352.707 268.667 356.451 281.272 C 358.278 287.666 362.023 294.607 365.312 301.367 C 350.788 313.15 341.837 326.851 338.64 335.802 C 332.886 352.426 337.361 359.916 345.856 361.652 C 349.692 362.474 355.173 360.647 359.192 358.911 C 364.307 357.267 370.335 354.436 376.09 350.234 C 385.863 343.018 395.271 332.971 394.723 319.361 C 394.449 313.15 392.805 307.03 390.522 301.093 C 402.853 295.978 418.746 293.146 439.023 295.521 C 482.502 300.636 491.088 327.764 489.443 339.182 C 487.799 350.599 478.665 356.81 475.651 358.729 C 472.637 360.647 471.632 361.286 471.906 362.656 C 472.271 364.666 473.733 364.574 476.29 364.209 C 479.853 363.57 499.126 354.984 499.948 333.975 C 501.318 307.121 475.742 277.801 430.529 278.075 Z  M 95.126 391.155 C 80.694 406.865 60.599 412.802 51.922 407.779 C 42.605 402.389 46.259 379.189 63.979 362.565 C 74.757 352.426 88.641 343.018 97.866 337.264 C 99.967 335.985 103.073 334.158 106.817 331.874 C 107.457 331.509 107.822 331.326 107.822 331.326 L 107.822 331.326 C 108.553 330.87 109.284 330.413 110.014 329.956 C 116.5 353.705 110.288 374.622 95.126 391.155 Z  M 200.168 319.726 C 195.144 331.966 184.64 363.296 178.246 361.56 C 172.765 360.099 169.386 336.35 177.15 312.876 C 181.077 301.093 189.389 287.026 194.23 281.546 C 202.086 272.777 210.763 269.854 212.864 273.416 C 215.513 278.075 203.273 312.054 200.168 319.726 Z  M 286.85 361.195 C 284.749 362.291 282.74 363.022 281.826 362.474 C 281.187 362.108 282.74 360.647 282.74 360.647 C 282.74 360.647 293.609 348.955 297.902 343.657 C 300.368 340.552 303.291 336.898 306.397 332.788 C 306.397 333.153 306.397 333.61 306.397 333.975 C 306.397 347.95 292.878 357.359 286.85 361.195 Z  M 353.711 345.941 C 352.158 344.845 352.432 341.191 357.639 329.774 C 359.648 325.298 364.398 317.808 372.527 310.592 C 373.441 313.515 374.08 316.347 373.989 318.995 C 373.898 336.624 361.293 343.201 353.711 345.941 Z " fill="rgb(205,103,153)"/></g></svg>