<?xml version="1.0" encoding="UTF-8" standalone="no"?><!-- Generator: Gravit.io --><svg xmlns="http://www.w3.org/2000/svg" xmlns:xlink="http://www.w3.org/1999/xlink" style="isolation:isolate" viewBox="0 0 500 500" width="500pt" height="500pt"><defs><clipPath id="_clipPath_mnFZCYE2Z4XbYAXAdZXd3dUlG5LJ0ZAP"><rect width="500" height="500"/></clipPath></defs><g clip-path="url(#_clipPath_mnFZCYE2Z4XbYAXAdZXd3dUlG5LJ0ZAP)"><rect width="500" height="500" style="fill:rgb(36,36,36)" fill-opacity="0"/><g><g><linearGradient id="_lgradient_24" x1="1.0983544196793402" y1="0.21147417293842835" x2="1.1102230246251565e-15" y2="1.0000000000000007" gradientTransform="matrix(-100.032,0,0,507.043,250,-17.017)" gradientUnits="userSpaceOnUse"><stop offset="0%" stop-opacity="1" style="stop-color:rgb(4,255,197)"/><stop offset="100%" stop-opacity="1" style="stop-color:rgb(59,255,127)"/></linearGradient><path d=" M 250 490.027 L 241.836 42.973 C 241.232 9.864 220.404 0.02 195.354 21.005 L 195.354 21.005 C 170.305 41.99 156.047 85.216 163.533 117.473 L 250 490.027 Z " fill="url(#_lgradient_24)"/><linearGradient id="_lgradient_25" x1="1.0983544196793402" y1="0.2114741729384283" x2="-0.05197385105244212" y2="0.9578684037076588" gradientTransform="matrix(-187.772,0,0,416,240.741,74.027)" gradientUnits="userSpaceOnUse"><stop offset="0%" stop-opacity="1" style="stop-color:rgb(4,255,197)"/><stop offset="100%" stop-opacity="1" style="stop-color:rgb(59,255,127)"/></linearGradient><path d=" M 140.038 146.006 L 240.741 490.027 L 89.89 223.309 C 69.513 187.279 67.755 139.207 85.968 116.027 L 85.968 116.027 C 104.181 92.846 128.409 106.28 140.038 146.006 Z " fill="url(#_lgradient_25)"/><linearGradient id="_lgradient_26" x1="1.0983544196793402" y1="0.21147417293842835" x2="1.1102230246251565e-15" y2="1.0000000000000007" gradientTransform="matrix(-200.868,0,0,311,228.836,179.027)" gradientUnits="userSpaceOnUse"><stop offset="0%" stop-opacity="1" style="stop-color:rgb(4,255,197)"/><stop offset="100%" stop-opacity="1" style="stop-color:rgb(59,255,127)"/></linearGradient><path d=" M 59.979 228.588 L 228.836 490.027 L 87.26 371.837 C 62.263 350.969 39.59 307.697 36.661 275.266 L 33.276 237.788 C 30.346 205.357 42.312 201.234 59.979 228.588 Z " fill="url(#_lgradient_26)"/></g><g><linearGradient id="_lgradient_27" x1="0.8755611861741098" y1="0.12854149555433939" x2="-0.1309760957241729" y2="0.8821472518797159" gradientTransform="matrix(100.032,0,0,507.043,256.834,-17.017)" gradientUnits="userSpaceOnUse"><stop offset="0%" stop-opacity="1" style="stop-color:rgb(4,255,197)"/><stop offset="100%" stop-opacity="1" style="stop-color:rgb(59,255,127)"/></linearGradient><path d=" M 256.834 490.027 L 264.998 42.973 C 265.603 9.864 286.431 0.02 311.48 21.005 L 311.48 21.005 C 336.529 41.99 350.788 85.216 343.301 117.473 L 256.834 490.027 Z " fill="url(#_lgradient_27)"/><linearGradient id="_lgradient_28" x1="0.8755611861741098" y1="0.1285414955543394" x2="0.02080333567318693" y2="0.9542626352601349" gradientTransform="matrix(187.772,0,0,416,266.094,74.027)" gradientUnits="userSpaceOnUse"><stop offset="0%" stop-opacity="1" style="stop-color:rgb(4,255,197)"/><stop offset="100%" stop-opacity="1" style="stop-color:rgb(59,255,127)"/></linearGradient><path d=" M 366.796 146.006 L 266.094 490.027 L 416.944 223.309 C 437.322 187.279 439.079 139.207 420.866 116.027 L 420.866 116.027 C 402.653 92.846 378.425 106.28 366.796 146.006 Z " fill="url(#_lgradient_28)"/><linearGradient id="_lgradient_29" x1="1.69266362610909" y1="0.39862784603133533" x2="6.661338147750939e-16" y2="1" gradientTransform="matrix(200.868,0,0,311,277.998,179.027)" gradientUnits="userSpaceOnUse"><stop offset="0%" stop-opacity="1" style="stop-color:rgb(4,255,197)"/><stop offset="100%" stop-opacity="1" style="stop-color:rgb(59,255,127)"/></linearGradient><path d=" M 446.856 228.588 L 277.998 490.027 L 419.574 371.837 C 444.571 350.969 467.244 307.697 470.174 275.266 L 473.559 237.788 C 476.488 205.357 464.523 201.234 446.856 228.588 Z " fill="url(#_lgradient_29)"/></g></g></g></svg>