<?xml version="1.0" encoding="UTF-8" standalone="no"?><!-- Generator: Gravit.io --><svg xmlns="http://www.w3.org/2000/svg" xmlns:xlink="http://www.w3.org/1999/xlink" style="isolation:isolate" viewBox="0 0 500 500" width="500pt" height="500pt"><defs><clipPath id="_clipPath_ZUTbclncmFpcy5aOjqRsBYd5wwZfQlR1"><rect width="500" height="500"/></clipPath></defs><g clip-path="url(#_clipPath_ZUTbclncmFpcy5aOjqRsBYd5wwZfQlR1)"><path d=" M 259.541 318.631 Q 327.062 353.184 365.17 342.202 C 416.738 327.341 450.01 311.479 446.541 226.631 Q 443.541 153.256 355.541 143.631 Q 356.453 94.341 308.541 61.631 C 264.416 31.506 229.291 40.131 195.541 61.631 Q 149.646 90.868 148.541 143.631 Q 62.699 159.483 54.541 223.631 C 45.416 295.381 83.943 347.448 148.541 351.631 Q 194.875 354.631 259.541 318.631 Z " fill="rgb(123,140,90)"/><clipPath id="_clipPath_hdt9TUzYGkCbCE98qL5QeiP7EXQTSiEt"><path d=" M 259.541 318.631 Q 327.062 353.184 365.17 342.202 C 416.738 327.341 450.01 311.479 446.541 226.631 Q 443.541 153.256 355.541 143.631 Q 356.453 94.341 308.541 61.631 C 264.416 31.506 229.291 40.131 195.541 61.631 Q 149.646 90.868 148.541 143.631 Q 62.699 159.483 54.541 223.631 C 45.416 295.381 83.943 347.448 148.541 351.631 Q 194.875 354.631 259.541 318.631 Z " fill="rgb(123,140,90)"/></clipPath><g clip-path="url(#_clipPath_hdt9TUzYGkCbCE98qL5QeiP7EXQTSiEt)"><path d=" M 259.541 318.631 Q 180.541 338.131 148.541 318.631 C 116.541 299.131 95.541 280.131 95.541 226.631 Q 95.541 173.131 148.541 143.631 Q 195.026 128.761 217.211 112.862 Q 247.211 91.362 247.791 41.862 L 343.541 36.631 L 480.541 172.631 L 480.541 318.631 L 355.541 378.631 L 259.541 318.631 Z " fill="rgb(165,189,118)"/></g><path d="M 142.711 205.862 L 374.711 205.862 C 380.506 205.862 385.211 210.567 385.211 216.362 L 385.211 216.362 C 385.211 222.157 380.506 226.862 374.711 226.862 L 142.711 226.862 C 136.916 226.862 132.211 222.157 132.211 216.362 L 132.211 216.362 C 132.211 210.567 136.916 205.862 142.711 205.862 Z" style="stroke:none;fill:#4F4F4F;stroke-miterlimit:10;"/><path d="M 258.711 205.862 L 258.711 205.862 C 264.92 205.862 269.961 210.903 269.961 217.112 L 269.961 446.612 C 269.961 452.821 264.92 457.862 258.711 457.862 L 258.711 457.862 C 252.502 457.862 247.461 452.821 247.461 446.612 L 247.461 217.112 C 247.461 210.903 252.502 205.862 258.711 205.862 Z" style="stroke:none;fill:#4F4F4F;stroke-miterlimit:10;"/></g></svg>