<?xml version="1.0" encoding="UTF-8" standalone="no"?><!-- Generator: Gravit.io --><svg xmlns="http://www.w3.org/2000/svg" xmlns:xlink="http://www.w3.org/1999/xlink" style="isolation:isolate" viewBox="0 0 1000 1000" width="1000pt" height="1000pt"><defs><clipPath id="_clipPath_y55pLGLw3I4cXXHXVpvliV9uEMOwGCc5"><rect width="1000" height="1000"/></clipPath></defs><g clip-path="url(#_clipPath_y55pLGLw3I4cXXHXVpvliV9uEMOwGCc5)"><path d=" M 116.028 308.841 L 491.972 187.159 C 502.474 183.76 519.438 184.018 529.832 187.736 L 889.168 316.264 C 899.562 319.982 907.428 331.943 906.723 342.959 L 885.277 678.041 C 884.572 689.057 876.009 702.056 866.166 707.052 L 505.834 889.948 C 495.991 894.944 480.211 894.567 470.618 889.108 L 136.382 698.892 C 126.789 693.433 118.474 680.054 117.826 669.035 L 98.174 334.965 C 97.526 323.946 105.526 312.24 116.028 308.841 Z " fill="rgb(51,51,51)"/><path d=" M 116.458 334.987 L 135.542 668.013 C 135.795 672.421 139.101 677.797 142.922 680.011 L 481.078 875.989 C 484.899 878.203 491.199 878.383 495.14 876.392 L 860.86 691.608 C 864.801 689.617 868.194 684.421 868.432 680.012 L 886.568 344.988 C 886.806 340.579 883.635 335.765 879.49 334.244 L 518.556 201.816 C 514.411 200.295 507.635 200.165 503.434 201.525 L 123.611 324.535 C 119.41 325.896 116.205 330.579 116.458 334.987 Z " fill="rgb(206,206,206)"/><path d=" M 125.422 337.787 L 469.623 483.274 C 479.791 487.571 496.449 487.948 506.801 484.115 L 877.245 346.945 C 887.596 343.112 887.606 336.86 877.268 332.993 L 529.778 203.007 C 519.439 199.14 502.539 198.821 492.062 202.296 L 125.983 323.704 C 115.506 327.179 115.255 333.489 125.422 337.787 Z " fill="rgb(198,198,198)"/><linearGradient id="_lgradient_2" x1="-0.0022421524663677195" y1="0.051188299817184646" x2="0.5964125560538116" y2="1.0804387568555756" gradientTransform="matrix(446,0,0,547,315,238)" gradientUnits="userSpaceOnUse"><stop offset="0%" stop-opacity="1" style="stop-color:rgb(0,206,143)"/><stop offset="100%" stop-opacity="1" style="stop-color:rgb(0,206,143)"/></linearGradient><path d=" M 315 261 L 384 238 L 738.721 380.076 C 751.017 385.001 760.554 399.745 760.004 412.979 L 746 750 L 676 785 L 686.287 438.989 C 686.68 425.749 677.064 410.887 664.825 405.82 L 315 261 Z " fill="url(#_lgradient_2)"/><path d=" M 211 544 L 261 569 L 265 678 L 326 712 L 323 617 L 306 590 L 376 628 L 287 483 L 211 544 Z " fill="rgb(0,206,143)"/></g></svg>