<?xml version="1.0" encoding="UTF-8" standalone="no"?><!-- Generator: Gravit.io --><svg xmlns="http://www.w3.org/2000/svg" xmlns:xlink="http://www.w3.org/1999/xlink" style="isolation:isolate" viewBox="0 0 612 612" width="612pt" height="612pt"><defs><clipPath id="_clipPath_u7yVvPcd2M6plNEDmfFokhvaXbswrzmT"><rect width="612" height="612"/></clipPath></defs><g clip-path="url(#_clipPath_u7yVvPcd2M6plNEDmfFokhvaXbswrzmT)"><path d=" M 376 0 C 376 1.08 376 2.16 376 3.3 C 376 42.06 344.58 73.47 305.83 73.47 C 267.07 73.47 235.66 42.05 235.66 3.3 L 235.66 3.3 C 235.66 2.16 235.66 1.08 235.66 0 L 0 0 L 0 612 L 612 612 L 612 0 L 376 0 Z " fill="rgb(240,79,143)"/><path d=" M 142.16 329.81 L 182.72 329.81 L 210.41 477.28 L 210.91 477.28 L 244.19 329.81 L 282.13 329.81 L 312.19 479.09 L 312.78 479.09 L 344.34 329.81 L 384.12 329.81 L 332.43 546.5 L 292.18 546.5 L 262.37 399.03 L 261.59 399.03 L 229.68 546.5 L 188.68 546.5 L 142.16 329.81 Z  M 429.85 329.81 L 493.79 329.81 L 557.29 546.5 L 515.45 546.5 L 501.64 498.28 L 428.8 498.28 L 418.14 546.5 L 377.39 546.5 L 429.85 329.81 Z  M 454.19 383.22 L 436.5 462.72 L 491.56 462.72 L 471.25 383.22 L 454.19 383.22 Z " fill="rgb(255,255,255)"/></g></svg>