<?xml version="1.0" encoding="UTF-8" standalone="no"?><!-- Generator: Gravit.io --><svg xmlns="http://www.w3.org/2000/svg" xmlns:xlink="http://www.w3.org/1999/xlink" style="isolation:isolate" viewBox="0 0 512 512" width="512pt" height="512pt"><defs><clipPath id="_clipPath_EDRYlAS0an6m4bDwAjHS3GAN8C4x3EhA"><rect width="512" height="512"/></clipPath></defs><g clip-path="url(#_clipPath_EDRYlAS0an6m4bDwAjHS3GAN8C4x3EhA)"><clipPath id="_clipPath_4U0ZTbTrpk5ht56UdqgN5VhDGCT6cyhe"><rect x="0" y="0" width="512" height="512" transform="matrix(1,0,0,1,0,0)" fill="rgb(255,255,255)"/></clipPath><g clip-path="url(#_clipPath_4U0ZTbTrpk5ht56UdqgN5VhDGCT6cyhe)"><g><g><g><path d=" M 481.728 0 L 440.599 460.746 L 255.724 512 L 71.357 460.819 L 30.272 0 L 481.728 0 L 481.728 0 Z " fill="rgb(166,15,38)"/><path d=" M 256 472.824 L 405.388 431.408 L 440.536 37.679 L 256 37.679 L 256 472.824 L 256 472.824 Z " fill="rgb(241,41,71)"/></g></g></g></g><path d=" M 365.229 94.2 L 281.115 234.212 L 369.688 381.614 L 319.16 381.614 L 255.851 276.503 L 192.84 381.614 L 142.313 381.614 L 230.588 234.212 L 146.771 94.2 L 197.299 94.2 L 255.851 192.331 L 314.701 94.2 L 365.229 94.2 Z " fill="rgb(253,225,225)"/></g></svg>