<?xml version="1.0" encoding="UTF-8" standalone="no"?><!-- Generator: Gravit.io --><svg xmlns="http://www.w3.org/2000/svg" xmlns:xlink="http://www.w3.org/1999/xlink" style="isolation:isolate" viewBox="0 0 500 500" width="500pt" height="500pt"><defs><clipPath id="_clipPath_nXiPX1QaSi3egqySvsCvt232v7midJz2"><rect width="500" height="500"/></clipPath></defs><g clip-path="url(#_clipPath_nXiPX1QaSi3egqySvsCvt232v7midJz2)"><rect width="500" height="500" style="fill:rgb(0,0,0)" fill-opacity="0"/><path d=" M 297.778 29.038 Q 174.974 122.947 123.293 257.747 C 100.642 316.826 120.78 398.437 168.234 439.88 L 168.234 439.88 C 215.688 481.323 291.457 481.323 337.329 439.88 L 337.329 439.88 C 383.201 398.437 399.555 317.861 373.826 260.056 Q 308.826 114.023 297.778 29.038 Z  M 148.974 307.431 L 148.974 307.431 L 148.974 307.431 C 136.173 374.191 182.786 432.248 253 437 L 253 437 L 253 437 C 212.71 413.268 166.098 355.21 148.974 307.431 Z " fill-rule="evenodd" fill="rgb(255,255,255)" fill-opacity="0.2"/></g></svg>