<?xml version="1.0" encoding="UTF-8" standalone="no"?><!-- Generator: Gravit.io --><svg xmlns="http://www.w3.org/2000/svg" xmlns:xlink="http://www.w3.org/1999/xlink" style="isolation:isolate" viewBox="0 0 512 512" width="512pt" height="512pt"><defs><clipPath id="_clipPath_lEEQqkjhwWnVH1dSTugetVUxqahEv5KQ"><rect width="512" height="512"/></clipPath></defs><g clip-path="url(#_clipPath_lEEQqkjhwWnVH1dSTugetVUxqahEv5KQ)"><path d=" M -0.565 19.094 L 111.308 19.094 L 168.34 79.783 L 340.17 79.783 L 394.278 19.094 L 512 19.094 L 512 492.906 L -0.565 492.906 L -0.565 19.094 Z " fill="rgb(36,36,36)"/><linearGradient id="_lgradient_0" x1="-2.7755575615628914e-17" y1="0.9999999999999998" x2="0.9999999999999997" y2="-4.440892098500626e-16" gradientTransform="matrix(399.23,0,0,350.423,56.103,103.212)" gradientUnits="userSpaceOnUse"><stop offset="0%" stop-opacity="1" style="stop-color:rgb(145,0,203)"/><stop offset="100%" stop-opacity="1" style="stop-color:rgb(205,1,52)"/></linearGradient><path d=" M 56.103 103.212 L 113.318 103.212 L 113.318 453.635 L 56.103 453.635 L 56.103 103.212 L 56.103 103.212 L 56.103 103.212 L 56.103 103.212 Z  M 170.351 161.89 L 227.201 161.89 L 227.201 453.635 L 170.351 453.635 L 170.351 161.89 L 170.351 161.89 L 170.351 161.89 L 170.351 161.89 Z  M 285.879 161.89 L 342.181 161.89 L 342.181 453.635 L 285.879 453.635 L 285.879 161.89 L 285.879 161.89 L 285.879 161.89 Z  M 396.289 209.6 L 455.333 209.6 L 455.333 453.635 L 396.289 453.635 L 396.289 209.6 L 396.289 209.6 Z  M 396.289 161.89 L 455.333 161.89 L 455.333 103.212 L 396.289 103.212 L 396.289 161.89 Z " fill-rule="evenodd" fill="url(#_lgradient_0)"/></g></svg>