<?xml version="1.0" encoding="UTF-8" standalone="no"?><!-- Generator: Gravit.io --><svg xmlns="http://www.w3.org/2000/svg" xmlns:xlink="http://www.w3.org/1999/xlink" style="isolation:isolate" viewBox="0 0 1000 1000" width="1000pt" height="1000pt"><defs><clipPath id="_clipPath_ky8hBrCGfbqaXTiYYRCgEkk9n47OBD93"><rect width="1000" height="1000"/></clipPath></defs><g clip-path="url(#_clipPath_ky8hBrCGfbqaXTiYYRCgEkk9n47OBD93)"><path d=" M 249.85 291.573 L 477.335 470.27 C 498.495 486.891 498.48 513.863 477.303 530.462 L 249.882 708.725 C 228.705 725.325 211.512 721.565 211.512 700.335 L 211.512 700.335 C 211.512 679.104 229.351 649.259 251.325 633.73 L 400.183 528.524 C 422.157 512.994 422.269 487.622 400.432 471.899 L 251.076 364.363 C 229.24 348.64 211.512 319.203 211.512 298.666 L 211.512 298.666 C 211.512 278.129 228.691 274.951 249.85 291.573 Z " fill="rgb(255,255,255)"/><path d="M 501.728 719.08 L 743.467 719.08 C 748.177 719.08 752 722.175 752 725.987 L 752 725.987 C 752 729.799 748.177 732.894 743.467 732.894 L 501.728 732.894 C 497.019 732.894 493.195 729.799 493.195 725.987 L 493.195 725.987 C 493.195 722.175 497.019 719.08 501.728 719.08 Z" style="fill:none;stroke:#FFFFFF;stroke-width:40;stroke-linecap:square;stroke-miterlimit:2;"/></g></svg>