<?xml version="1.0" encoding="UTF-8" standalone="no"?><!-- Generator: Gravit.io --><svg xmlns="http://www.w3.org/2000/svg" xmlns:xlink="http://www.w3.org/1999/xlink" style="isolation:isolate" viewBox="0 0 1000 1000" width="1000pt" height="1000pt"><defs><clipPath id="_clipPath_j4aZnzOT1qW1n7HqIwUyk4rZit4Qb11s"><rect width="1000" height="1000"/></clipPath></defs><g clip-path="url(#_clipPath_j4aZnzOT1qW1n7HqIwUyk4rZit4Qb11s)"><clipPath id="_clipPath_b0ih72sm6M0Q6Aad796dw4doamtaNfyR"><rect x="0" y="0" width="1000" height="1000" transform="matrix(1,0,0,1,0,0)" fill="rgb(255,255,255)"/></clipPath><g clip-path="url(#_clipPath_b0ih72sm6M0Q6Aad796dw4doamtaNfyR)"><g><path d=" M 249.85 291.573 L 477.335 470.27 C 498.495 486.891 498.48 513.863 477.303 530.462 L 249.882 708.725 C 228.705 725.325 211.512 721.565 211.512 700.335 L 211.512 700.335 C 211.512 679.104 229.351 649.259 251.325 633.73 L 400.183 528.524 C 422.157 512.994 422.269 487.622 400.432 471.899 L 251.076 364.363 C 229.24 348.64 211.512 319.203 211.512 298.666 L 211.512 298.666 C 211.512 278.129 228.691 274.951 249.85 291.573 Z " fill="rgb(102,102,102)"/><path d=" M 537.728 692.308 L 707.467 692.308 C 727.336 692.308 745.379 698.829 747.733 706.861 L 747.733 706.861 L 752 721.414 L 752 721.414 L 747.733 735.967 L 747.733 735.967 C 745.379 743.999 727.336 750.52 707.467 750.52 L 537.728 750.52 C 517.859 750.52 499.816 743.999 497.461 735.967 L 497.461 735.967 L 493.195 721.414 L 493.195 721.414 L 497.461 706.861 L 497.461 706.861 C 499.816 698.829 517.859 692.308 537.728 692.308 Z " fill="rgb(102,102,102)"/></g></g></g></svg>